<svg width="28" height="28" viewBox="0 0 28 28" fill="none" xmlns="http://www.w3.org/2000/svg">
<path d="M14 0C11.2311 0 8.52431 0.821085 6.22202 2.35942C3.91973 3.89776 2.12532 6.08426 1.06569 8.64243C0.00606591 11.2006 -0.271181 14.0155 0.269012 16.7313C0.809205 19.447 2.14258 21.9416 4.10051 23.8995C6.05845 25.8574 8.55301 27.1908 11.2687 27.731C13.9845 28.2712 16.7994 27.9939 19.3576 26.9343C21.9157 25.8747 24.1022 24.0803 25.6406 21.778C27.1789 19.4757 28 16.7689 28 14C28 10.287 26.525 6.72601 23.8995 4.1005C21.274 1.475 17.713 0 14 0ZM15.5556 20.2222C15.5556 20.6348 15.3917 21.0304 15.0999 21.3222C14.8082 21.6139 14.4126 21.7778 14 21.7778C13.5874 21.7778 13.1918 21.6139 12.9001 21.3222C12.6083 21.0304 12.4444 20.6348 12.4444 20.2222V14C12.0319 14 11.6362 13.8361 11.3445 13.5444C11.0528 13.2527 10.8889 12.857 10.8889 12.4444C10.8889 12.0319 11.0528 11.6362 11.3445 11.3445C11.6362 11.0528 12.0319 10.8889 12.4444 10.8889H14C14.4126 10.8889 14.8082 11.0528 15.0999 11.3445C15.3917 11.6362 15.5556 12.0319 15.5556 12.4444V20.2222ZM14 9.33333C13.6923 9.33333 13.3916 9.2421 13.1358 9.07117C12.88 8.90025 12.6806 8.6573 12.5629 8.37306C12.4451 8.08882 12.4143 7.77605 12.4743 7.4743C12.5344 7.17255 12.6825 6.89538 12.9001 6.67783C13.1176 6.46028 13.3948 6.31213 13.6965 6.25211C13.9983 6.19209 14.311 6.22289 14.5953 6.34063C14.8795 6.45837 15.1225 6.65775 15.2934 6.91356C15.4643 7.16937 15.5556 7.47012 15.5556 7.77778C15.5556 8.19033 15.3917 8.586 15.0999 8.87772C14.8082 9.16944 14.4126 9.33333 14 9.33333Z" fill="#612ACE"/>
</svg>
