<?xml version="1.0" encoding="UTF-8"?>
<!DOCTYPE svg PUBLIC "-//W3C//DTD SVG 1.1//EN" "http://www.w3.org/Graphics/SVG/1.1/DTD/svg11.dtd">
<svg xmlns="http://www.w3.org/2000/svg" version="1.1" width="81px" height="80px" style="shape-rendering:geometricPrecision; text-rendering:geometricPrecision; image-rendering:optimizeQuality; fill-rule:evenodd; clip-rule:evenodd" xmlns:xlink="http://www.w3.org/1999/xlink">
<g><path style="opacity:1" fill="#612ace" d="M 37.5,-0.5 C 40.1667,-0.5 42.8333,-0.5 45.5,-0.5C 45.5,11.5 45.5,23.5 45.5,35.5C 57.1667,35.5 68.8333,35.5 80.5,35.5C 80.5,38.1667 80.5,40.8333 80.5,43.5C 68.8333,43.5 57.1667,43.5 45.5,43.5C 45.5,55.5 45.5,67.5 45.5,79.5C 42.8333,79.5 40.1667,79.5 37.5,79.5C 37.5,67.5 37.5,55.5 37.5,43.5C 25.5,43.5 13.5,43.5 1.5,43.5C 1.5,40.8333 1.5,38.1667 1.5,35.5C 13.5,35.5 25.5,35.5 37.5,35.5C 37.5,23.5 37.5,11.5 37.5,-0.5 Z"/></g>
</svg>
