<?xml version="1.0" encoding="UTF-8"?>
<!DOCTYPE svg PUBLIC "-//W3C//DTD SVG 1.1//EN" "http://www.w3.org/Graphics/SVG/1.1/DTD/svg11.dtd">
<svg xmlns="http://www.w3.org/2000/svg" version="1.1" width="76px" height="85px" style="shape-rendering:geometricPrecision; text-rendering:geometricPrecision; image-rendering:optimizeQuality; fill-rule:evenodd; clip-rule:evenodd" xmlns:xlink="http://www.w3.org/1999/xlink">
<g><path style="opacity:0.986" fill="#6029cd" d="M 11.5,-0.5 C 23.5,-0.5 35.5,-0.5 47.5,-0.5C 54.4456,3.78486 62.1122,5.6182 70.5,5C 72.3231,5.99728 73.9897,7.16394 75.5,8.5C 75.5,18.5 75.5,28.5 75.5,38.5C 70.3676,41.6082 65.0342,44.4415 59.5,47C 49.5862,56.0783 46.0862,67.2449 49,80.5C 47.6244,81.7051 46.4577,83.0384 45.5,84.5C 42.1667,84.5 38.8333,84.5 35.5,84.5C 27.3852,79.617 23.3852,72.2837 23.5,62.5C 23.5521,59.6776 24.2187,57.011 25.5,54.5C 19.0868,53.9202 12.7535,53.0869 6.5,52C 1.30765,48.1673 0.307653,43.5006 3.5,38C 1.92975,36.6032 0.596413,35.1032 -0.5,33.5C -0.5,30.8333 -0.5,28.1667 -0.5,25.5C 1.27951,24.2548 1.61284,22.7548 0.5,21C 0.890235,17.8237 2.39024,15.3237 5,13.5C 5.33333,10.5 5.66667,7.5 6,4.5C 7.10653,1.88698 8.93986,0.220313 11.5,-0.5 Z"/></g>
</svg>
