<?xml version="1.0" encoding="UTF-8"?>
<!DOCTYPE svg PUBLIC "-//W3C//DTD SVG 1.1//EN" "http://www.w3.org/Graphics/SVG/1.1/DTD/svg11.dtd">
<svg xmlns="http://www.w3.org/2000/svg" version="1.1" width="76px" height="85px" style="shape-rendering:geometricPrecision; text-rendering:geometricPrecision; image-rendering:optimizeQuality; fill-rule:evenodd; clip-rule:evenodd" xmlns:xlink="http://www.w3.org/1999/xlink">
<g><path style="opacity:0.987" fill="#6029cd" d="M 29.5,-0.5 C 32.8333,-0.5 36.1667,-0.5 39.5,-0.5C 47.4631,4.24234 51.4631,11.409 51.5,21C 50.7503,24.1635 50.0836,27.3301 49.5,30.5C 55.9522,30.0845 62.2855,30.5845 68.5,32C 73.7269,35.8032 74.7269,40.4699 71.5,46C 72.7332,47.6667 74.0665,49.1667 75.5,50.5C 75.5,52.8333 75.5,55.1667 75.5,57.5C 73.8906,60.1489 73.0572,63.1489 73,66.5C 70.0139,70.2272 68.6805,74.5605 69,79.5C 66.8337,82.5316 64.0003,84.1982 60.5,84.5C 49.8333,84.5 39.1667,84.5 28.5,84.5C 21.2152,80.1732 13.2152,78.3399 4.5,79C 2.67694,78.0027 1.01027,76.8361 -0.5,75.5C -0.5,65.5 -0.5,55.5 -0.5,45.5C 0.267389,44.828 0.934056,43.9947 1.5,43C 20.774,36.7254 28.9407,23.5588 26,3.5C 26.6897,1.64977 27.8564,0.316435 29.5,-0.5 Z"/></g>
</svg>
