<?xml version="1.0" encoding="UTF-8"?>
<!DOCTYPE svg PUBLIC "-//W3C//DTD SVG 1.1//EN" "http://www.w3.org/Graphics/SVG/1.1/DTD/svg11.dtd">
<svg xmlns="http://www.w3.org/2000/svg" version="1.1" width="76px" height="84px" style="shape-rendering:geometricPrecision; text-rendering:geometricPrecision; image-rendering:optimizeQuality; fill-rule:evenodd; clip-rule:evenodd" xmlns:xlink="http://www.w3.org/1999/xlink">
<g><path style="opacity:0.949" fill="#6029ce" d="M 75.5,9.5 C 75.5,19.5 75.5,29.5 75.5,39.5C 71.6618,42.5112 67.3285,44.6779 62.5,46C 51.8665,53.7883 47.6998,64.2883 50,77.5C 49.4015,80.2542 47.9015,82.2542 45.5,83.5C 41.5,83.5 37.5,83.5 33.5,83.5C 29.5212,81.6852 26.6878,78.6852 25,74.5C 23.3711,67.9313 22.5378,61.2646 22.5,54.5C 8.46556,57.9309 1.2989,52.5976 1,38.5C 0.617425,37.944 0.117425,37.6107 -0.5,37.5C -0.5,34.1667 -0.5,30.8333 -0.5,27.5C -0.322266,22.5462 1.51107,18.2129 5,14.5C 5.33333,11.5 5.66667,8.5 6,5.5C 6.93498,2.89806 8.76831,1.39806 11.5,1C 23.5,0.333333 35.5,0.333333 47.5,1C 55.0173,4.82681 63.0173,6.49347 71.5,6C 72.7051,7.37561 74.0384,8.54227 75.5,9.5 Z M 26.5,7.5 C 31.5111,7.33407 36.5111,7.50074 41.5,8C 46.8193,9.65673 52.1526,11.3234 57.5,13C 61.1516,13.4986 64.8183,13.6653 68.5,13.5C 68.8306,20.8635 68.4973,28.1968 67.5,35.5C 55.6511,39.1805 47.4844,46.8472 43,58.5C 42.8299,64.1958 42.3299,69.8624 41.5,75.5C 36.7376,76.9629 33.5709,75.2962 32,70.5C 30.6367,62.5705 30.1367,54.5705 30.5,46.5C 23.825,46.6663 17.1583,46.4996 10.5,46C 8.56625,44.2713 8.56625,42.2713 10.5,40C 9.43029,37.1939 8.09695,34.5272 6.5,32C 8.10081,28.7514 8.93414,25.2514 9,21.5C 13.5318,18.0714 14.6985,13.7381 12.5,8.5C 17.3633,8.81946 22.03,8.48612 26.5,7.5 Z"/></g>
</svg>
