<?xml version="1.0" encoding="UTF-8"?>
<!DOCTYPE svg PUBLIC "-//W3C//DTD SVG 1.1//EN" "http://www.w3.org/Graphics/SVG/1.1/DTD/svg11.dtd">
<svg xmlns="http://www.w3.org/2000/svg" version="1.1" width="76px" height="84px" style="shape-rendering:geometricPrecision; text-rendering:geometricPrecision; image-rendering:optimizeQuality; fill-rule:evenodd; clip-rule:evenodd" xmlns:xlink="http://www.w3.org/1999/xlink">
<g><path style="opacity:0.944" fill="#6029cd" d="M 33.5,-0.5 C 35.1667,-0.5 36.8333,-0.5 38.5,-0.5C 45.5508,1.39338 49.7174,6.06005 51,13.5C 51.4994,18.8229 51.666,24.1563 51.5,29.5C 57.2896,29.0962 62.9562,29.5962 68.5,31C 73.0269,34.0314 74.3602,38.0314 72.5,43C 73.3994,44.6516 74.3994,46.1516 75.5,47.5C 75.5,50.1667 75.5,52.8333 75.5,55.5C 75.1644,60.6599 73.331,65.3266 70,69.5C 71.1794,77.4405 68.0128,82.1071 60.5,83.5C 49.5,83.5 38.5,83.5 27.5,83.5C 24.8402,81.5033 21.8402,80.0033 18.5,79C 13.8333,78.6667 9.16667,78.3333 4.5,78C 2.4156,77.3028 0.748938,76.1361 -0.5,74.5C -0.5,64.5 -0.5,54.5 -0.5,44.5C 0.267389,43.828 0.934056,42.9947 1.5,42C 19.5252,36.4594 27.3585,24.2927 25,5.5C 26.6689,1.63944 29.5022,-0.360564 33.5,-0.5 Z M 33.5,7.5 C 38.3851,6.85581 41.5518,8.85581 43,13.5C 44.2748,21.4467 44.7748,29.4467 44.5,37.5C 51.4222,37.1878 58.2555,37.5212 65,38.5C 65,41.1667 65,43.8333 65,46.5C 66.1667,48.1667 67.3333,49.8333 68.5,51.5C 66.9779,54.6396 66.1446,57.9729 66,61.5C 64.418,62.9603 63.0847,64.627 62,66.5C 61.8305,69.4679 61.6638,72.3012 61.5,75C 50.5,75.6667 39.5,75.6667 28.5,75C 21.6853,71.0958 14.352,69.5958 6.5,70.5C 6.33368,63.1591 6.50034,55.8258 7,48.5C 25.7173,41.2727 34.5506,27.606 33.5,7.5 Z"/></g>
</svg>
