<svg width="26" height="26" viewBox="0 0 26 26" fill="none" xmlns="http://www.w3.org/2000/svg">
<path d="M19.5397 14.5742L17.2591 12.9061C16.9123 12.6518 16.4886 12.5517 16.0648 12.6172C15.641 12.6827 15.2712 12.9099 15.0169 13.2567L14.3119 14.2236C14.3042 14.2352 14.2965 14.2467 14.2888 14.2583C14.181 14.2737 13.6108 14.2853 12.2471 13.1989L12.1007 13.0949C10.6753 12.1472 10.5135 11.604 10.4942 11.4923C10.5019 11.4807 10.5135 11.4691 10.5212 11.4576L11.2262 10.4906C11.7462 9.77793 11.5921 8.77244 10.8756 8.24851L8.55258 6.55345C7.83988 6.02952 6.8344 6.18747 6.31047 6.90402L5.59777 7.88253C4.90819 8.83023 4.72712 10.0746 5.11622 11.211C5.68252 12.856 7.10407 14.5935 9.35388 16.381C9.39241 16.4272 9.43864 16.4657 9.48872 16.5043C9.54265 16.5428 9.60044 16.5813 9.65437 16.6198C9.7083 16.6622 9.76224 16.7007 9.81617 16.7431C9.86626 16.7816 9.92019 16.8124 9.97412 16.8356C12.3626 18.4305 14.4506 19.2587 16.1919 19.2934C16.215 19.2934 16.242 19.2934 16.2651 19.2934C17.4016 19.2934 18.488 18.7348 19.1737 17.791L19.8864 16.8125C20.1407 16.4657 20.2408 16.042 20.1753 15.6182C20.1137 15.1983 19.8864 14.8246 19.5397 14.5742ZM18.6459 15.9071L17.9332 16.8856C17.5249 17.4442 16.87 17.764 16.2266 17.7524C15.1865 17.7293 13.3681 17.2979 10.5712 15.3755C7.88611 13.2952 6.91915 11.6964 6.58014 10.7141C6.3567 10.063 6.45686 9.32719 6.84595 8.79556L7.55865 7.81704C7.57792 7.79008 7.61644 7.78237 7.64726 7.80163L9.97027 9.4967C9.99724 9.51596 10.0049 9.55834 9.98568 9.5853L9.31151 10.506C9.10733 10.7295 8.92626 11.107 8.95708 11.5886C9.01872 12.4785 9.76609 13.3915 11.2223 14.3585L11.3109 14.4239C12.7016 15.5334 13.7996 15.9688 14.6664 15.7569C15.1325 15.6413 15.4369 15.3524 15.5871 15.0904L16.2613 14.1697C16.2805 14.1466 16.3268 14.1389 16.3499 14.1543L18.6344 15.8224C18.6575 15.8339 18.6613 15.8802 18.6459 15.9071Z" fill="black"/>
<path d="M12.6706 0C5.68618 0 0 5.68232 0 12.6706C0 15.6139 1.02089 18.4493 2.88161 20.7145L0.743518 24.8789C0.600978 25.1525 0.639502 25.4838 0.835976 25.7226C0.98622 25.8998 1.20196 26 1.42925 26C1.50244 26 1.57564 25.9884 1.64884 25.9692L7.48526 24.2356C9.11868 24.9714 10.86 25.3412 12.6668 25.3412C19.6512 25.3412 25.3374 19.6589 25.3374 12.6706C25.3374 5.68232 19.6551 0 12.6706 0ZM12.6706 23.7964C10.9948 23.7964 9.38065 23.4343 7.88206 22.7139C7.7087 22.633 7.51222 22.6176 7.33116 22.6715L2.94325 23.9775L4.49192 20.9572C4.63832 20.6721 4.59209 20.3292 4.3802 20.0904C2.5503 18.0486 1.54097 15.4097 1.54097 12.6706C1.54097 6.53371 6.53371 1.54097 12.6706 1.54097C18.8075 1.54097 23.7964 6.53371 23.7964 12.6706C23.7964 18.8075 18.8075 23.7964 12.6706 23.7964Z" fill="black"/>
</svg>
