<?xml version="1.0" encoding="UTF-8"?>
<!DOCTYPE svg PUBLIC "-//W3C//DTD SVG 1.1//EN" "http://www.w3.org/Graphics/SVG/1.1/DTD/svg11.dtd">
<svg xmlns="http://www.w3.org/2000/svg" version="1.1" width="86px" height="94px" style="shape-rendering:geometricPrecision; text-rendering:geometricPrecision; image-rendering:optimizeQuality; fill-rule:evenodd; clip-rule:evenodd" xmlns:xlink="http://www.w3.org/1999/xlink">
<g><path style="opacity:0.961" fill="#6029ce" d="M 85.5,9.5 C 85.5,21.8333 85.5,34.1667 85.5,46.5C 64.7471,53.3241 55.5805,67.6575 58,89.5C 56.9681,91.0267 55.8014,92.36 54.5,93.5C 49.1667,93.5 43.8333,93.5 38.5,93.5C 33.9804,90.7959 31.1471,86.7959 30,81.5C 28.6712,74.908 28.1712,68.2414 28.5,61.5C 23.1563,61.666 17.8229,61.4994 12.5,61C 9.06292,59.8951 6.56292,57.7284 5,54.5C 4.2349,47.3703 3.2349,40.3703 2,33.5C 3.08056,29.2034 4.08056,24.8701 5,20.5C 6,19.5 7,18.5 8,17.5C 8.33333,14.1667 8.66667,10.8333 9,7.5C 9.78451,5.71398 10.9512,4.21398 12.5,3C 24.7521,1.18973 37.0854,0.523062 49.5,1C 55.1479,1.66042 60.4812,3.32708 65.5,6C 71.4611,6.99682 77.4611,7.66348 83.5,8C 84.0442,8.71719 84.7109,9.21719 85.5,9.5 Z M 78.5,15.5 C 78.8032,24.2511 78.4699,32.9177 77.5,41.5C 67.5874,43.8831 60.0874,49.5498 55,58.5C 53.6667,61.1667 52.3333,63.8333 51,66.5C 50.5005,72.8246 50.3338,79.1579 50.5,85.5C 41.2286,86.3702 36.7286,82.0369 37,72.5C 36.5005,66.1754 36.3338,59.8421 36.5,53.5C 29.4921,53.6663 22.4921,53.4996 15.5,53C 14.3128,51.9805 13.3128,50.8139 12.5,49.5C 13.5617,46.8971 13.7284,44.2305 13,41.5C 11.3016,40.4711 10.4683,38.9711 10.5,37C 12.3117,33.7749 12.645,30.4416 11.5,27C 13.3189,24.5107 15.1522,22.0107 17,19.5C 17.3013,16.4929 17.1346,13.4929 16.5,10.5C 28.4857,9.52439 40.4857,9.35772 52.5,10C 60.5499,14.6786 69.2166,16.512 78.5,15.5 Z"/></g>
<g><path style="opacity:0.258" fill="#6028cf" d="M 78.5,15.5 C 79.1657,19.6533 79.4991,23.9866 79.5,28.5C 79.4921,33.2216 78.8255,37.5549 77.5,41.5C 78.4699,32.9177 78.8032,24.2511 78.5,15.5 Z"/></g>
</svg>
