<svg width="28" height="33" viewBox="0 0 28 33" fill="none" xmlns="http://www.w3.org/2000/svg">
<path d="M25.6661 25.7332H2.33339V9.43874H10.501L10.4995 7.26758H1.16679C0.52219 7.26758 0 7.75374 0 8.35244V26.8181C0 27.1067 0.122411 27.3836 0.340899 27.587C0.559382 27.7904 0.8569 27.9044 1.16679 27.9044H3.50037V32.2498L9.1003 27.9044H26.8331C27.143 27.9044 27.4405 27.7905 27.659 27.587C27.8775 27.3836 27.9999 27.1066 27.9999 26.8181V13.7839H25.6663L25.6661 25.7332Z" fill="#612ACE"/>
<path d="M12.833 17.043H15.1666V19.2156H12.833V17.043Z" fill="#612ACE"/>
<path d="M18.667 17.043H21.0006V19.2156H18.667V17.043Z" fill="#612ACE"/>
<path d="M6.99902 17.043H9.33261V19.2156H6.99902V17.043Z" fill="#612ACE"/>
<path d="M12.833 5.0957H15.1666V11.6134H12.833V5.0957Z" fill="#612ACE"/>
<path d="M26.8333 4.00889H24.4997V1.83629C24.4997 1.54777 24.3773 1.27224 24.1588 1.06738C23.9403 0.86397 23.6428 0.75 23.3345 0.75H22.1677C21.8577 0.75 21.5603 0.863966 21.3418 1.06738L17.8414 4.32628C17.6229 4.52969 17.5005 4.80668 17.5005 5.09519V10.5267V10.5252C17.5005 10.8138 17.6229 11.0907 17.8414 11.2942C18.0614 11.4976 18.3574 11.6115 18.6673 11.6115H26.8349H26.8334C27.1433 11.6115 27.4408 11.4976 27.6592 11.2942C27.8777 11.0907 28.0001 10.8138 28.0001 10.5252V5.09523C28.0001 4.8067 27.8777 4.52973 27.6592 4.32631C27.4408 4.1229 27.1432 4.00889 26.8333 4.00889ZM25.6665 9.44039L19.8341 9.43895V5.54379L22.1677 3.3712V5.09515C22.1677 5.38223 22.2901 5.6592 22.5086 5.86262C22.7271 6.06603 23.0246 6.18144 23.3345 6.18144H25.6681L25.6665 9.44039Z" fill="#612ACE"/>
</svg>
