<?xml version="1.0" encoding="UTF-8"?>
<!DOCTYPE svg PUBLIC "-//W3C//DTD SVG 1.1//EN" "http://www.w3.org/Graphics/SVG/1.1/DTD/svg11.dtd">
<svg xmlns="http://www.w3.org/2000/svg" version="1.1" width="180px" height="180px" style="shape-rendering:geometricPrecision; text-rendering:geometricPrecision; image-rendering:optimizeQuality; fill-rule:evenodd; clip-rule:evenodd" xmlns:xlink="http://www.w3.org/1999/xlink">
<g><path style="opacity:0.975" fill="#6029cd" d="M 86.5,6.5 C 90.1916,5.97122 93.3583,6.97122 96,9.5C 103.439,24.044 110.605,38.7107 117.5,53.5C 134.483,56.3788 151.483,59.2121 168.5,62C 172.533,65.1676 173.367,69.0009 171,73.5C 159.145,85.3551 147.312,97.1884 135.5,109C 138.382,124.627 141.049,140.294 143.5,156C 143.962,161.535 141.462,164.702 136,165.5C 120.433,157.967 104.933,150.3 89.5,142.5C 74.0668,150.3 58.5668,157.967 43,165.5C 37.5065,164.674 35.0065,161.508 35.5,156C 37.951,140.294 40.6177,124.627 43.5,109C 30.9924,96.8258 18.8258,84.3258 7,71.5C 6.04133,67.5786 7.208,64.4119 10.5,62C 27.5166,59.2121 44.5166,56.3788 61.5,53.5C 68.3946,38.7107 75.5612,24.044 83,9.5C 84.1451,8.36362 85.3117,7.36362 86.5,6.5 Z M 124.5,141.5 C 113.003,135.586 101.337,129.919 89.5,124.5C 77.3136,129.843 65.4803,135.843 54,142.5C 55.5435,132.236 57.2101,121.903 59,111.5C 59.6667,108.167 59.6667,104.833 59,101.5C 50.1667,92.6667 41.3333,83.8333 32.5,75C 44.7744,72.7224 57.1077,70.7224 69.5,69C 70.5,68.1667 71.5,67.3333 72.5,66.5C 77.9114,55.3433 83.578,44.3433 89.5,33.5C 95.5148,44.8648 101.515,56.1982 107.5,67.5C 120.373,70.5071 133.373,73.0071 146.5,75C 137.667,83.8333 128.833,92.6667 120,101.5C 119.333,104.833 119.333,108.167 120,111.5C 121.827,121.462 123.327,131.462 124.5,141.5 Z"/></g>
</svg>
