<svg width="40" height="40" viewBox="0 0 40 40" fill="none" xmlns="http://www.w3.org/2000/svg">
<path d="M16.3057 29.4218L16.3057 29.4218C15.2419 27.7015 13.7074 26.0769 11.6723 24.5563L11.6679 24.553C9.90927 23.2238 8.18276 22.3417 6.48841 21.8758C5.65414 21.6465 5 20.8916 5 19.9538C5 19.0369 5.62863 18.2825 6.4569 18.046L6.45692 18.046C8.14609 17.5637 9.78424 16.7779 11.3725 15.6785C13.196 14.4088 14.713 12.8904 15.9306 11.1218C17.0172 9.53182 17.7437 7.9877 18.1344 6.48869C18.1344 6.48868 18.1344 6.48868 18.1344 6.48868L19.1021 6.74089L16.3057 29.4218ZM16.3057 29.4218L16.3089 29.4269M16.3057 29.4218L16.3089 29.4269M16.3089 29.4269C17.2325 30.9006 17.8344 32.2554 18.1436 33.494C18.3506 34.3235 19.0909 35 20.0356 35C20.9817 35 21.7236 34.3211 21.9283 33.4881L21.9283 33.488C22.2372 32.2303 22.8397 30.8654 23.764 29.3903C24.4889 28.2353 25.4255 27.1241 26.5833 26.0589L26.5833 26.0589L26.5911 26.0516C27.7521 24.9602 29.0036 24.0218 30.3463 23.2344C31.451 22.5981 32.5062 22.1479 33.5125 21.872L33.5125 21.872M16.3089 29.4269L33.5125 21.872M33.5125 21.872C34.3401 21.6451 35 20.8966 35 19.9562C35 19.0323 34.3599 18.2816 33.5319 18.0515L33.5125 21.872ZM23.0038 9.2978C22.5129 8.3334 22.1589 7.40448 21.9345 6.51028L33.5319 18.0515C31.9192 17.6033 30.3124 16.8207 28.7107 15.6857C27.4815 14.8041 26.3702 13.8203 25.3755 12.7342C24.407 11.6262 23.6184 10.4805 23.0038 9.2978Z" fill="white" stroke="black" stroke-width="2"/>
<path d="M19.6723 27C18.7569 27 18.2099 26.3776 18.2099 25.3677L18.2099 22.009L15.1625 22.009C14.2472 22.009 13.6667 21.4453 13.6667 20.5059C13.6667 19.5781 14.2472 19.0145 15.1625 19.0145L18.2099 19.0145L18.2099 15.6323C18.2099 14.6341 18.7681 14 19.6723 14C20.5765 14 21.1234 14.6341 21.1234 15.6323L21.1234 19.0145L24.1597 19.0145C25.0862 19.0145 25.6667 19.5781 25.6667 20.5059C25.6667 21.4453 25.0751 22.009 24.1485 22.009L21.1234 22.009L21.1234 25.3677C21.1234 26.3776 20.5765 27 19.6723 27Z" fill="black"/>
</svg>
