<svg width="34" height="40" viewBox="0 0 34 40" fill="none" xmlns="http://www.w3.org/2000/svg">
<path d="M29.4543 10.6831C28.7308 9.96592 27.8716 9.397 26.9261 9.00884C25.9805 8.62068 24.967 8.4209 23.9435 8.4209C22.92 8.4209 21.9065 8.62068 20.9609 9.00884C20.0153 9.397 19.1562 9.96592 18.4327 10.6831L16.931 12.1708L15.4293 10.6831C13.9678 9.23512 11.9855 8.42165 9.9185 8.42165C7.85153 8.42165 5.86923 9.23512 4.40766 10.6831C2.9461 12.1311 2.125 14.095 2.125 16.1428C2.125 18.1905 2.9461 20.1544 4.40766 21.6024L16.931 34.0094L29.4543 21.6024C30.1782 20.8856 30.7525 20.0344 31.1443 19.0976C31.5361 18.1609 31.7377 17.1568 31.7377 16.1428C31.7377 15.1287 31.5361 14.1247 31.1443 13.1879C30.7525 12.2511 30.1782 11.4 29.4543 10.6831Z" fill="#612ACE"/>
</svg>
