<svg width="40" height="40" viewBox="0 0 40 40" fill="none" xmlns="http://www.w3.org/2000/svg">
<rect x="8" y="15" width="25" height="17" rx="2" fill="white" stroke="black" stroke-width="2"/>
<path d="M18.5759 9.42897C15.209 7.82065 11.313 7.93681 6.9543 8.07141C5.86812 8.10495 5 8.99455 5 10.0812V25.9487C5 27.1032 5.97528 28.0134 7.12853 27.9589C11.7509 27.7403 15.6372 27.9365 18.9979 30.0836C19.7689 30.5762 20.7645 30.6078 21.5576 30.1517C24.892 28.2341 28.6999 27.8526 33.0693 27.6661C34.1458 27.6201 35 26.7393 35 25.6619V10.183C35 9.05667 34.0694 8.15258 32.943 8.15474C28.1413 8.16395 24.0238 7.86084 20.8942 9.39307C20.1678 9.74873 19.3058 9.7776 18.5759 9.42897Z" fill="white" stroke="black" stroke-width="2"/>
<path d="M23.5 17.634C24.1667 18.0189 24.1667 18.9811 23.5 19.366L18.25 22.3971C17.5833 22.782 16.75 22.3009 16.75 21.5311L16.75 15.4689C16.75 14.6991 17.5833 14.218 18.25 14.6029L23.5 17.634Z" fill="#1A1A1A"/>
</svg>
