<svg width="40" height="40" viewBox="0 0 40 40" fill="none" xmlns="http://www.w3.org/2000/svg">
<path d="M20.3167 7.30946C19.8626 6.89685 19.1357 6.89685 18.6826 7.30946C15.3083 10.3722 11.5919 13.6191 7.92665 16.5835C7.43369 16.9829 7.01718 17.7739 7.00921 18.3476C6.94873 22.2953 7.18608 26.2415 7.7224 30.1891C7.80228 30.7627 8.36028 31.3078 8.95364 31.3905C11.0807 31.6818 13.2075 31.8837 15.3348 31.9984C15.9282 32.0315 16.396 31.5461 16.3766 30.9305C16.2945 28.4977 16.2385 26.0649 16.21 23.6334C16.202 23.0189 16.719 22.5202 17.3568 22.5236C18.7855 22.5313 20.2142 22.5313 21.6429 22.5236C22.2808 22.5202 22.7977 23.0189 22.7897 23.6334C22.76 26.0661 22.7053 28.499 22.6231 30.9305C22.6037 31.5461 23.0716 32.0315 23.6649 31.9984C25.7919 31.8837 27.9188 31.6807 30.0461 31.3905C30.6394 31.3078 31.1975 30.7627 31.2773 30.1891C31.8136 26.2415 32.0521 22.2953 31.9905 18.3476C31.9825 17.774 31.566 16.9829 31.0731 16.5835C27.4066 13.6191 23.6902 10.3722 20.3171 7.30946H20.3167Z" fill="#612ACE"/>
</svg>
