<?xml version="1.0" encoding="UTF-8"?>
<!DOCTYPE svg PUBLIC "-//W3C//DTD SVG 1.1//EN" "http://www.w3.org/Graphics/SVG/1.1/DTD/svg11.dtd">
<svg xmlns="http://www.w3.org/2000/svg" version="1.1" width="160px" height="160px" style="shape-rendering:geometricPrecision; text-rendering:geometricPrecision; image-rendering:optimizeQuality; fill-rule:evenodd; clip-rule:evenodd" xmlns:xlink="http://www.w3.org/1999/xlink">
<g><path style="opacity:0.934" fill="#191919" d="M 72.5,25.5 C 76.6372,25.1463 80.6372,25.6463 84.5,27C 98.5765,40.4142 113.243,53.0808 128.5,65C 130.43,67.2583 131.93,69.7583 133,72.5C 134.232,91.3133 133.232,109.98 130,128.5C 128.437,131.728 125.937,133.895 122.5,135C 110.825,137.521 99.158,137.854 87.5,136C 85.9588,134.421 84.7922,132.587 84,130.5C 83.5004,120.49 83.6671,110.49 84.5,100.5C 79.8333,100.5 75.1667,100.5 70.5,100.5C 71.3329,110.49 71.4996,120.49 71,130.5C 68.2826,136.886 63.4493,139.22 56.5,137.5C 48.4425,137.216 40.4425,136.382 32.5,135C 27.9014,133.402 25.0681,130.235 24,125.5C 21.7077,107.897 21.0411,90.2305 22,72.5C 22.5611,70.2746 23.5611,68.2746 25,66.5C 41.3207,53.3422 57.154,39.6755 72.5,25.5 Z M 77.5,31.5 C 92.6678,44.4985 108.001,57.3318 123.5,70C 126.422,73.4339 127.756,77.4339 127.5,82C 126.947,96.2199 125.781,110.387 124,124.5C 123.535,125.931 122.701,127.097 121.5,128C 112.321,129.464 103.154,130.63 94,131.5C 93.2496,130.874 92.4162,130.374 91.5,130C 90.5287,118.89 90.362,107.723 91,96.5C 90.6258,95.5838 90.1258,94.7504 89.5,94C 81.5,93.3333 73.5,93.3333 65.5,94C 64.8742,94.7504 64.3742,95.5838 64,96.5C 64.6023,107.725 64.4357,118.892 63.5,130C 62.5838,130.374 61.7504,130.874 61,131.5C 51.8461,130.63 42.6794,129.464 33.5,128C 32.2986,127.097 31.4652,125.931 31,124.5C 29.2192,110.387 28.0526,96.2199 27.5,82C 27.2442,77.4339 28.5775,73.4339 31.5,70C 47.0464,57.2752 62.3797,44.4419 77.5,31.5 Z"/></g>
</svg>
