<?xml version="1.0" encoding="UTF-8"?>
<!DOCTYPE svg PUBLIC "-//W3C//DTD SVG 1.1//EN" "http://www.w3.org/Graphics/SVG/1.1/DTD/svg11.dtd">
<svg xmlns="http://www.w3.org/2000/svg" version="1.1" width="40px" height="40px" style="shape-rendering:geometricPrecision; text-rendering:geometricPrecision; image-rendering:optimizeQuality; fill-rule:evenodd; clip-rule:evenodd" xmlns:xlink="http://www.w3.org/1999/xlink">
<g><path style="opacity:0.74" fill="#191919" d="M 17.5,5.5 C 19.7834,5.60791 21.7834,6.44124 23.5,8C 26.3688,11.2041 29.5354,14.0374 33,16.5C 33.9029,22.1691 33.4029,27.6691 31.5,33C 22.1984,37.2418 18.5317,34.4085 20.5,24.5C 19.5,24.5 18.5,24.5 17.5,24.5C 19.1441,34.6563 15.3108,37.3229 6,32.5C 4.11387,26.792 4.11387,21.1253 6,15.5C 10.0261,12.3016 13.8595,8.96829 17.5,5.5 Z M 18.5,7.5 C 22.5413,11.2768 26.708,14.9434 31,18.5C 30.923,22.8049 30.7563,27.1382 30.5,31.5C 27.8806,31.2317 25.3806,31.565 23,32.5C 22.5017,29.1832 22.335,25.8499 22.5,22.5C 20.1667,22.5 17.8333,22.5 15.5,22.5C 15.5,25.5 15.5,28.5 15.5,31.5C 12.8333,31.5 10.1667,31.5 7.5,31.5C 7.36267,27.1243 7.196,22.7909 7,18.5C 11.1955,15.1633 15.0289,11.4966 18.5,7.5 Z"/></g>
</svg>
