<svg width="34" height="34" viewBox="0 0 34 34" fill="none" xmlns="http://www.w3.org/2000/svg">
<path d="M4.25 13.3394C4.25 12.8161 4.51636 12.3251 4.96481 12.0219L16.0148 4.54916C16.6046 4.15028 17.3954 4.15028 17.9852 4.54916L29.0352 12.0219C29.4836 12.3251 29.75 12.8161 29.75 13.3394V27.325C29.75 28.6643 28.6083 29.75 27.2 29.75H6.8C5.39167 29.75 4.25 28.6643 4.25 27.325V13.3394Z" fill="white"/>
<path d="M10.625 24.1719H23.375M16.0148 4.54916L4.96481 12.0219C4.51636 12.3251 4.25 12.8161 4.25 13.3394V27.325C4.25 28.6643 5.39167 29.75 6.8 29.75H27.2C28.6083 29.75 29.75 28.6643 29.75 27.325V13.3394C29.75 12.8161 29.4836 12.3251 29.0352 12.0219L17.9852 4.54916C17.3954 4.15028 16.6046 4.15028 16.0148 4.54916Z" stroke="black" stroke-width="2" stroke-linecap="round" stroke-linejoin="round"/>
</svg>
