<?xml version="1.0" encoding="UTF-8"?>
<!DOCTYPE svg PUBLIC "-//W3C//DTD SVG 1.1//EN" "http://www.w3.org/Graphics/SVG/1.1/DTD/svg11.dtd">
<svg xmlns="http://www.w3.org/2000/svg" version="1.1" width="85px" height="93px" style="shape-rendering:geometricPrecision; text-rendering:geometricPrecision; image-rendering:optimizeQuality; fill-rule:evenodd; clip-rule:evenodd" xmlns:xlink="http://www.w3.org/1999/xlink">
<g><path style="opacity:0.95" fill="#6029cd" d="M 33.5,-0.5 C 37.8333,-0.5 42.1667,-0.5 46.5,-0.5C 53.277,3.0207 57.1104,8.68736 58,16.5C 58.4993,21.4889 58.6659,26.4889 58.5,31.5C 65.0614,30.9186 71.3947,31.752 77.5,34C 81.8872,38.1521 83.7205,43.3187 83,49.5C 83.3826,50.056 83.8826,50.3893 84.5,50.5C 84.5,54.5 84.5,58.5 84.5,62.5C 84.4053,67.748 82.572,72.4147 79,76.5C 80.6887,86.199 76.8554,91.5323 67.5,92.5C 55.8333,92.5 44.1667,92.5 32.5,92.5C 23.9456,87.53 14.6123,85.3634 4.5,86C 1.88698,84.8935 0.220313,83.0601 -0.5,80.5C -0.5,70.5 -0.5,60.5 -0.5,50.5C 0.589662,48.2389 2.25633,46.4055 4.5,45C 15.712,42.1263 23.5453,35.293 28,24.5C 28.3333,17.8333 28.6667,11.1667 29,4.5C 30.025,2.31305 31.525,0.646381 33.5,-0.5 Z M 38.5,7.5 C 42.8884,6.94328 46.0551,8.60995 48,12.5C 50.2268,21.6831 51.0602,31.0164 50.5,40.5C 57.8409,40.3337 65.1742,40.5003 72.5,41C 73,41.5 73.5,42 74,42.5C 73.6799,45.4601 73.6799,48.4601 74,51.5C 77.0844,55.3102 77.2511,59.3102 74.5,63.5C 74.6799,64.5539 75.0133,65.5539 75.5,66.5C 74.0173,69.1447 72.1839,71.4781 70,73.5C 69.6124,76.8492 69.7791,80.1825 70.5,83.5C 59.4988,84.0396 48.4988,84.2063 37.5,84C 32.4098,82.6225 27.4098,80.9558 22.5,79C 17.882,78.006 13.2153,77.506 8.5,77.5C 8.5,69.1667 8.5,60.8333 8.5,52.5C 12.7814,51.8639 16.7814,50.3639 20.5,48C 33.5226,37.4676 39.5226,23.9676 38.5,7.5 Z"/></g>
</svg>
