<svg width="28" height="28" viewBox="0 0 28 28" fill="none" xmlns="http://www.w3.org/2000/svg">
<path d="M28 13.9993C28 14.3629 27.8375 14.7212 27.5026 14.989L22.2496 19.1892C21.5651 19.7366 20.4571 19.7366 19.7742 19.1892C19.0896 18.6419 19.0896 17.7559 19.7742 17.2099L22.0379 15.3998H10.5061C9.53921 15.3998 8.75454 14.7724 8.75454 13.9993C8.75454 13.2262 9.53921 12.5988 10.5061 12.5988H22.0379L19.7742 10.7887C19.0896 10.2414 19.0896 9.35541 19.7742 8.80938C20.4587 8.26204 21.5667 8.26204 22.2496 8.80938L27.5026 13.0096C27.8375 13.2774 28 13.6357 28 13.9993ZM19.1111 25.0275C14.4801 25.3399 9.74441 25.2244 5.00538 24.6455C4.00731 21.1553 3.50172 17.5787 3.50172 13.9991C3.50172 10.4211 4.00731 6.84555 5.00702 3.35261C9.75782 2.77375 14.4968 2.65433 19.1127 2.97197C20.0895 3.02973 20.9234 2.46532 21.0055 1.69614C21.0875 0.925641 20.3751 0.248359 19.4099 0.181424C14.1275 -0.18084 8.69545 -0.00364973 3.27816 0.740595C2.59363 0.833787 2.04207 1.24331 1.87464 1.78148C0.630359 5.7771 0 9.88663 0 13.9988C0 18.1124 0.630359 22.2236 1.87464 26.2162C2.04208 26.7544 2.59363 27.1626 3.27652 27.2571C6.86002 27.7493 10.4714 28 14.0073 28C15.8048 28 17.622 27.9383 19.4095 27.8162C20.3714 27.7506 21.0872 27.0733 21.0051 26.3028C20.9246 25.5323 20.1088 24.9588 19.1107 25.027L19.1111 25.0275Z" fill="#612ACE"/>
</svg>
