<svg width="40" height="40" viewBox="0 0 40 40" fill="none" xmlns="http://www.w3.org/2000/svg">
<path d="M17.3128 7.41425C18.4155 5.19256 21.5845 5.19256 22.6872 7.41425L22.9005 7.84388C23.5672 9.18719 25.1234 9.83182 26.5447 9.35339L26.9993 9.20038C29.35 8.40912 31.5909 10.65 30.7996 13.0007L30.6466 13.4553C30.1682 14.8766 30.8128 16.4328 32.1561 17.0995L32.5858 17.3128C34.8074 18.4155 34.8074 21.5845 32.5858 22.6872L32.1561 22.9005C30.8128 23.5672 30.1682 25.1234 30.6466 26.5447L30.7996 26.9993C31.5909 29.35 29.35 31.5909 26.9993 30.7996L26.5447 30.6466C25.1234 30.1682 23.5672 30.8128 22.9005 32.1561L22.6872 32.5858C21.5845 34.8074 18.4155 34.8074 17.3128 32.5858L17.0995 32.1561C16.4328 30.8128 14.8766 30.1682 13.4553 30.6466L13.0007 30.7996C10.65 31.5909 8.40912 29.35 9.20038 26.9993L9.35339 26.5447C9.83182 25.1234 9.18719 23.5672 7.84388 22.9005L7.41425 22.6872C5.19256 21.5845 5.19256 18.4155 7.41425 17.3128L7.84388 17.0995C9.18719 16.4328 9.83182 14.8766 9.35339 13.4553L9.20038 13.0007C8.40912 10.65 10.65 8.40912 13.0007 9.20038L13.4553 9.35339C14.8766 9.83182 16.4328 9.18719 17.0995 7.84388L17.3128 7.41425Z" stroke="black" stroke-width="2"/>
<circle cx="20.5" cy="18.5" r="3.5" stroke="black" stroke-width="2"/>
<path d="M26 30V28.5C26 25.4624 23.5376 23 20.5 23V23C17.4624 23 15 25.4624 15 28.5V30" stroke="black" stroke-width="2"/>
</svg>
