<svg width="67" height="67" viewBox="0 0 67 67" fill="none" xmlns="http://www.w3.org/2000/svg">
<g filter="url(#filter0_di_202_566)">
<path d="M33.5648 54C32.7604 54 32.0806 53.4176 31.8858 52.6373C31.265 50.1503 30.0765 47.5054 28.3203 44.7032C26.2396 41.3385 23.2734 38.2175 19.4219 35.3399C16.072 32.808 12.7221 31.0814 9.37225 30.1603C8.57886 29.9423 8 29.2387 8 28.4159C8 27.6092 8.5566 26.9138 9.33231 26.6923C12.6166 25.7545 15.7806 24.2321 18.8242 22.125C22.3216 19.6901 25.2435 16.7682 27.5898 13.3594C29.6655 10.3227 31.0904 7.31939 31.8645 4.34948C32.0673 3.57144 32.7522 3 33.5564 3C34.3693 3 35.0591 3.5841 35.2569 4.37274C35.7037 6.15318 36.4019 7.97556 37.3515 9.83984C38.547 12.1419 40.0742 14.3555 41.9336 16.4805C43.8372 18.5612 45.9624 20.4427 48.3086 22.125C51.3747 24.2984 54.4916 25.8253 57.6597 26.7058C58.437 26.9218 59 27.6137 59 28.4203C59 29.239 58.4199 29.9367 57.6304 30.1532C55.6223 30.7037 53.5552 31.5916 51.4298 32.8164C48.862 34.3216 46.4713 36.1146 44.2577 38.1954C42.0443 40.2318 40.2292 42.3789 38.8124 44.6367C37.0529 47.4447 35.8631 50.11 35.2434 52.6329C35.0512 53.4155 34.3703 54 33.5648 54Z" fill="url(#paint0_linear_202_566)" shape-rendering="crispEdges"/>
</g>
<defs>
<filter id="filter0_di_202_566" x="0.6" y="0.6" width="65.8" height="65.8" filterUnits="userSpaceOnUse" color-interpolation-filters="sRGB">
<feFlood flood-opacity="0" result="BackgroundImageFix"/>
<feColorMatrix in="SourceAlpha" type="matrix" values="0 0 0 0 0 0 0 0 0 0 0 0 0 0 0 0 0 0 127 0" result="hardAlpha"/>
<feOffset dy="5"/>
<feGaussianBlur stdDeviation="3.7"/>
<feComposite in2="hardAlpha" operator="out"/>
<feColorMatrix type="matrix" values="0 0 0 0 0.986447 0 0 0 0 0.48585 0 0 0 0 0.123349 0 0 0 0.5 0"/>
<feBlend mode="normal" in2="BackgroundImageFix" result="effect1_dropShadow_202_566"/>
<feBlend mode="normal" in="SourceGraphic" in2="effect1_dropShadow_202_566" result="shape"/>
<feColorMatrix in="SourceAlpha" type="matrix" values="0 0 0 0 0 0 0 0 0 0 0 0 0 0 0 0 0 0 127 0" result="hardAlpha"/>
<feOffset dy="-1"/>
<feGaussianBlur stdDeviation="0.15"/>
<feComposite in2="hardAlpha" operator="arithmetic" k2="-1" k3="1"/>
<feColorMatrix type="matrix" values="0 0 0 0 1 0 0 0 0 1 0 0 0 0 1 0 0 0 0.56 0"/>
<feBlend mode="normal" in2="shape" result="effect2_innerShadow_202_566"/>
</filter>
<linearGradient id="paint0_linear_202_566" x1="15.0125" y1="7.845" x2="45.995" y2="47.4975" gradientUnits="userSpaceOnUse">
<stop stop-color="#5923C4"/>
<stop offset="1" stop-color="#FC7C1F" stop-opacity="0.5"/>
</linearGradient>
</defs>
</svg>
