<?xml version="1.0" encoding="UTF-8"?>
<!DOCTYPE svg PUBLIC "-//W3C//DTD SVG 1.1//EN" "http://www.w3.org/Graphics/SVG/1.1/DTD/svg11.dtd">
<svg xmlns="http://www.w3.org/2000/svg" version="1.1" width="144px" height="156px" style="shape-rendering:geometricPrecision; text-rendering:geometricPrecision; image-rendering:optimizeQuality; fill-rule:evenodd; clip-rule:evenodd" xmlns:xlink="http://www.w3.org/1999/xlink">
<g><path style="opacity:0.996" fill="#fefefe" d="M 29.5,-0.5 C 36.1667,-0.5 42.8333,-0.5 49.5,-0.5C 53.0584,0.771032 56.0584,2.77103 58.5,5.5C 59.8637,7.19107 61.197,8.85774 62.5,10.5C 63.6454,43.4705 63.8121,76.4705 63,109.5C 60.5258,115.974 56.0258,120.474 49.5,123C 42.8333,123.667 36.1667,123.667 29.5,123C 23,120.5 18.5,116 16,109.5C 15.3333,77.5 15.3333,45.5 16,13.5C 16.6064,10.4522 18.1064,7.95217 20.5,6C 20.2716,5.60123 19.9382,5.43456 19.5,5.5C 22.3608,3.4315 25.6941,1.4315 29.5,-0.5 Z"/></g>
<g><path style="opacity:0.996" fill="#fefefe" d="M 93.5,-0.5 C 100.167,-0.5 106.833,-0.5 113.5,-0.5C 117.095,1.10229 120.429,3.10229 123.5,5.5C 124.382,7.08432 125.215,8.75099 126,10.5C 126.77,11.5981 127.603,11.5981 128.5,10.5C 128.423,11.7498 127.756,12.5831 126.5,13C 127.662,45.095 127.829,77.2617 127,109.5C 122.673,119.918 114.84,124.585 103.5,123.5C 92.196,124.6 84.3627,119.933 80,109.5C 79.5212,76.5198 79.3545,43.6864 79.5,11C 80.756,10.5831 81.4226,9.74975 81.5,8.5C 82.1667,8.5 82.5,8.16667 82.5,7.5C 83.1667,7.5 83.5,7.16667 83.5,6.5C 84.8333,6.16667 84.8333,5.83333 83.5,5.5C 83.5,5.16667 83.5,4.83333 83.5,4.5C 86.8312,2.83704 90.1646,1.17037 93.5,-0.5 Z"/></g>
<g><path style="opacity:0.004" fill="#000000" d="M 83.5,4.5 C 83.5,4.83333 83.5,5.16667 83.5,5.5C 83.5,5.83333 83.5,6.16667 83.5,6.5C 83.5,7.16667 83.1667,7.5 82.5,7.5C 81.8333,7.5 81.1667,7.5 80.5,7.5C 81.1667,6.16667 82.1667,5.16667 83.5,4.5 Z"/></g>
<g><path style="opacity:0.004" fill="#474747" d="M 65.5,9.5 C 64.7784,9.91753 64.2784,10.5842 64,11.5C 63.6667,10.8333 63.3333,10.1667 63,9.5C 62.6012,9.72845 62.4346,10.0618 62.5,10.5C 61.197,8.85774 59.8637,7.19107 58.5,5.5C 60.0491,5.26424 61.5491,5.26424 63,5.5C 64.0946,6.69335 64.928,8.02668 65.5,9.5 Z"/></g>
<g><path style="opacity:0.005" fill="#000000" d="M 123.5,5.5 C 124.609,5.55688 125.609,5.89022 126.5,6.5C 126.5,7.16667 126.833,7.5 127.5,7.5C 127.328,8.49162 127.662,9.15829 128.5,9.5C 128.5,9.83333 128.5,10.1667 128.5,10.5C 127.603,11.5981 126.77,11.5981 126,10.5C 125.215,8.75099 124.382,7.08432 123.5,5.5 Z"/></g>
<g><path style="opacity:0.004" fill="#000000" d="M 126.5,5.5 C 127.833,6.16667 127.833,6.16667 126.5,5.5 Z"/></g>
<g><path style="opacity:0.004" fill="#5e5e5e" d="M 127.5,7.5 C 129.23,8.02561 130.564,9.02561 131.5,10.5C 130.833,10.5 130.167,10.5 129.5,10.5C 129.5,9.83333 129.167,9.5 128.5,9.5C 127.662,9.15829 127.328,8.49162 127.5,7.5 Z"/></g>
<g><path style="opacity:0.079" fill="#0d0d0d" d="M 19.5,5.5 C 19.9382,5.43456 20.2716,5.60123 20.5,6C 18.1064,7.95217 16.6064,10.4522 16,13.5C 15.3333,45.5 15.3333,77.5 16,109.5C 18.5,116 23,120.5 29.5,123C 36.1667,123.667 42.8333,123.667 49.5,123C 56.0258,120.474 60.5258,115.974 63,109.5C 63.8121,76.4705 63.6454,43.4705 62.5,10.5C 62.4346,10.0618 62.6012,9.72845 63,9.5C 63.3333,10.1667 63.6667,10.8333 64,11.5C 64.2784,10.5842 64.7784,9.91753 65.5,9.5C 65.8333,9.5 66.1667,9.5 66.5,9.5C 68.3737,10.6418 70.207,11.9752 72,13.5C 72.4169,12.244 73.2502,11.5774 74.5,11.5C 74.5,11.1667 74.5,10.8333 74.5,10.5C 74.8333,10.5 75.1667,10.5 75.5,10.5C 76.6477,11.895 77.6477,11.7284 78.5,10C 78.2716,9.60123 77.9382,9.43456 77.5,9.5C 77.6322,6.99309 78.6322,6.32642 80.5,7.5C 80.5,8.16667 80.8333,8.5 81.5,8.5C 81.4226,9.74975 80.756,10.5831 79.5,11C 79.3545,43.6864 79.5212,76.5198 80,109.5C 84.3627,119.933 92.196,124.6 103.5,123.5C 114.84,124.585 122.673,119.918 127,109.5C 127.829,77.2617 127.662,45.095 126.5,13C 127.756,12.5831 128.423,11.7498 128.5,10.5C 128.833,10.5 129.167,10.5 129.5,10.5C 130.167,11.8333 130.833,11.8333 131.5,10.5C 133.379,10.3932 133.712,10.8932 132.5,12C 134.301,12.3173 134.634,12.984 133.5,14C 134.381,14.7083 135.047,15.5416 135.5,16.5C 135.263,17.791 135.596,18.791 136.5,19.5C 136.833,20.8333 137.167,20.8333 137.5,19.5C 139.842,19.7748 139.842,20.6081 137.5,22C 138.044,22.7172 138.711,23.2172 139.5,23.5C 139.5,24.1667 139.167,24.5 138.5,24.5C 137.352,23.105 136.352,23.2716 135.5,25C 136.448,25.4828 137.448,25.6495 138.5,25.5C 139.376,25.3691 140.043,25.7025 140.5,26.5C 139.873,27.4168 139.539,28.4168 139.5,29.5C 138.167,30.1667 138.167,30.8333 139.5,31.5C 141.138,32.7046 141.471,34.0379 140.5,35.5C 139.167,36.5 139.167,37.5 140.5,38.5C 140.737,49.3817 140.737,61.0484 140.5,73.5C 138.074,74.3525 137.24,76.0192 138,78.5C 139.011,77.6634 140.178,77.33 141.5,77.5C 141.443,78.609 141.11,79.609 140.5,80.5C 138.969,81.9245 139.302,82.5912 141.5,82.5C 141.39,84.0982 141.057,85.7648 140.5,87.5C 139.375,88.3478 139.375,89.3478 140.5,90.5C 141.443,101.31 141.777,111.977 141.5,122.5C 140.298,124.78 139.298,127.114 138.5,129.5C 132.292,130.902 131.958,132.235 137.5,133.5C 138.429,135.322 137.762,136.655 135.5,137.5C 133.654,136.258 133.321,136.591 134.5,138.5C 134.833,138.5 135.167,138.5 135.5,138.5C 135.938,138.435 136.272,138.601 136.5,139C 132.772,142.973 129.272,146.473 126,149.5C 125.617,148.944 125.117,148.611 124.5,148.5C 124.483,146.972 123.816,146.472 122.5,147C 123.066,147.995 123.733,148.828 124.5,149.5C 121.833,150.167 119.167,150.833 116.5,151.5C 115.075,149.969 114.409,150.302 114.5,152.5C 107.999,153.331 101.332,153.331 94.5,152.5C 93.5398,151.485 92.3731,151.485 91,152.5C 89.9889,151.944 89.1556,151.278 88.5,150.5C 87.8333,150.5 87.1667,150.5 86.5,150.5C 85.1667,150.5 83.8333,150.5 82.5,150.5C 82.8808,148.058 82.2141,147.391 80.5,148.5C 79.4787,146.812 78.1454,145.479 76.5,144.5C 75.3915,143.71 74.0581,143.21 72.5,143C 72.8333,142.667 73.1667,142.333 73.5,142C 71.9893,140.385 70.656,140.385 69.5,142C 69.8333,142.333 70.1667,142.667 70.5,143C 68.5087,143.374 66.842,144.207 65.5,145.5C 64.7321,146.263 64.2321,147.263 64,148.5C 63.6667,147.833 63.3333,147.167 63,146.5C 61.8378,148.838 60.0044,150.172 57.5,150.5C 56.1667,147.833 54.8333,147.833 53.5,150.5C 52.8333,150.5 52.5,150.833 52.5,151.5C 51.391,151.557 50.391,151.89 49.5,152.5C 49.1583,151.662 48.4916,151.328 47.5,151.5C 46.209,151.263 45.209,151.596 44.5,152.5C 37.2023,154.013 29.869,153.346 22.5,150.5C 22.1667,149.167 21.8333,149.167 21.5,150.5C 21.1667,150.5 20.8333,150.5 20.5,150.5C 18.3074,149.611 15.974,148.111 13.5,146C 13.8333,145.667 14.1667,145.333 14.5,145C 10.4277,144.417 7.76104,142.25 6.5,138.5C 6.5,138.167 6.5,137.833 6.5,137.5C 6.83333,137.5 7.16667,137.5 7.5,137.5C 8.71515,136.221 8.38182,135.221 6.5,134.5C 5.83333,134.5 5.5,134.833 5.5,135.5C 3.58971,131.666 2.25638,127.499 1.5,123C 2.21531,108.858 2.54864,94.3582 2.5,79.5C 2.5,78.5 2.5,77.5 2.5,76.5C 1.94625,60.8657 1.61291,46.199 1.5,32.5C 1.81777,31.3527 2.48444,30.5194 3.5,30C 2.97814,29.4387 2.6448,28.772 2.5,28C 4.2413,26.2491 4.90796,24.4158 4.5,22.5C 5.92167,22.2914 7.25501,21.7914 8.5,21C 7.90558,20.5357 7.23891,20.369 6.5,20.5C 6.67158,19.5084 6.33825,18.8417 5.5,18.5C 6.69705,14.9687 8.69705,11.9687 11.5,9.5C 13.9766,7.66635 16.6433,6.33302 19.5,5.5 Z"/></g>
<g><path style="opacity:0.004" fill="#000000" d="M 66.5,8.5 C 67.8333,9.16667 67.8333,9.16667 66.5,8.5 Z"/></g>
<g><path style="opacity:0.004" fill="#fefffe" d="M 74.5,10.5 C 73.8333,9.16667 73.8333,9.16667 74.5,10.5 Z"/></g>
<g><path style="opacity:0.004" fill="#fefffe" d="M 75.5,10.5 C 75.8417,9.66175 76.5084,9.32842 77.5,9.5C 77.9382,9.43456 78.2716,9.60123 78.5,10C 77.6477,11.7284 76.6477,11.895 75.5,10.5 Z"/></g>
<g><path style="opacity:0.008" fill="#9a9a9a" d="M 74.5,11.5 C 76.0847,12.0024 76.5847,13.0024 76,14.5C 74.9614,13.7562 74.4614,12.7562 74.5,11.5 Z"/></g>
<g><path style="opacity:0.008" fill="#949494" d="M 8.5,16.5 C 9.3864,15.2241 10.3864,15.2241 11.5,16.5C 10.5754,17.5624 9.57537,17.5624 8.5,16.5 Z"/></g>
<g><path style="opacity:0.004" fill="#c6c6c6" d="M 135.5,16.5 C 136.401,17.2905 137.068,18.2905 137.5,19.5C 137.167,19.5 136.833,19.5 136.5,19.5C 135.596,18.791 135.263,17.791 135.5,16.5 Z"/></g>
<g><path style="opacity:0.008" fill="#8c8c8c" d="M 5.5,18.5 C 5.32842,19.4916 5.66175,20.1583 6.5,20.5C 7.23891,20.369 7.90558,20.5357 8.5,21C 7.25501,21.7914 5.92167,22.2914 4.5,22.5C 4.23219,20.901 4.56552,19.5676 5.5,18.5 Z"/></g>
<g><path style="opacity:0.004" fill="#fefffe" d="M 139.5,22.5 C 140.833,23.1667 140.833,23.1667 139.5,22.5 Z"/></g>
<g><path style="opacity:0.008" fill="#989898" d="M 138.5,24.5 C 138.5,24.8333 138.5,25.1667 138.5,25.5C 137.448,25.6495 136.448,25.4828 135.5,25C 136.352,23.2716 137.352,23.105 138.5,24.5 Z"/></g>
<g><path style="opacity:0.004" fill="#fefffe" d="M 139.5,29.5 C 139.5,30.1667 139.833,30.5 140.5,30.5C 140.5,31.1667 140.167,31.5 139.5,31.5C 138.167,30.8333 138.167,30.1667 139.5,29.5 Z"/></g>
<g><path style="opacity:0.004" fill="#000000" d="M 140.5,29.5 C 141.833,30.1667 141.833,30.1667 140.5,29.5 Z"/></g>
<g><path style="opacity:0.008" fill="#949494" d="M 140.5,35.5 C 141.833,36.5 141.833,37.5 140.5,38.5C 139.167,37.5 139.167,36.5 140.5,35.5 Z"/></g>
<g><path style="opacity:0.005" fill="#000000" d="M 140.5,73.5 C 141.404,74.209 141.737,75.209 141.5,76.5C 140.448,76.6495 139.448,76.4828 138.5,76C 139.756,75.5831 140.423,74.7498 140.5,73.5 Z"/></g>
<g><path style="opacity:0.016" fill="#767676" d="M 140.5,73.5 C 140.423,74.7498 139.756,75.5831 138.5,76C 139.448,76.4828 140.448,76.6495 141.5,76.5C 141.5,76.8333 141.5,77.1667 141.5,77.5C 140.178,77.33 139.011,77.6634 138,78.5C 137.24,76.0192 138.074,74.3525 140.5,73.5 Z"/></g>
<g><path style="opacity:0.004" fill="#e3e3e3" d="M 2.5,76.5 C 2.5,77.5 2.5,78.5 2.5,79.5C 1.16667,78.5 1.16667,77.5 2.5,76.5 Z"/></g>
<g><path style="opacity:0.004" fill="#dddddd" d="M 140.5,80.5 C 141.338,80.8417 141.672,81.5084 141.5,82.5C 139.302,82.5912 138.969,81.9245 140.5,80.5 Z"/></g>
<g><path style="opacity:0.004" fill="#cfcfcf" d="M 140.5,87.5 C 141.833,88.5 141.833,89.5 140.5,90.5C 139.375,89.3478 139.375,88.3478 140.5,87.5 Z"/></g>
<g><path style="opacity:0.008" fill="#6e6e6e" d="M 138.5,129.5 C 139.239,129.369 139.906,129.536 140.5,130C 138.365,130.87 137.365,132.037 137.5,133.5C 131.958,132.235 132.292,130.902 138.5,129.5 Z"/></g>
<g><path style="opacity:0.004" fill="#a5a5a5" d="M 6.5,134.5 C 8.38182,135.221 8.71515,136.221 7.5,137.5C 7.16667,136.167 6.83333,136.167 6.5,137.5C 5.66175,137.158 5.32842,136.492 5.5,135.5C 6.16667,135.5 6.5,135.167 6.5,134.5 Z"/></g>
<g><path style="opacity:0.004" fill="#fefffe" d="M 135.5,137.5 C 135.5,137.833 135.5,138.167 135.5,138.5C 135.167,138.5 134.833,138.5 134.5,138.5C 133.321,136.591 133.654,136.258 135.5,137.5 Z"/></g>
<g><path style="opacity:0.004" fill="#fefffe" d="M 6.5,138.5 C 5.83333,139.167 5.83333,139.167 6.5,138.5 Z"/></g>
<g><path style="opacity:0.004" fill="#dddddd" d="M 134.5,138.5 C 134.217,139.289 133.717,139.956 133,140.5C 132.472,139.184 132.972,138.517 134.5,138.5 Z"/></g>
<g><path style="opacity:0.004" fill="#000000" d="M 76.5,144.5 C 75.8333,145.167 75.8333,145.167 76.5,144.5 Z"/></g>
<g><path style="opacity:0.004" fill="#fefffe" d="M 65.5,145.5 C 66.8333,146.167 66.8333,146.167 65.5,145.5 Z"/></g>
<g><path style="opacity:0.004" fill="#e4e4e4" d="M 124.5,148.5 C 124.5,148.833 124.5,149.167 124.5,149.5C 123.733,148.828 123.066,147.995 122.5,147C 123.816,146.472 124.483,146.972 124.5,148.5 Z"/></g>
<g><path style="opacity:0.004" fill="#d8d8d8" d="M 57.5,150.5 C 56.4324,151.434 55.099,151.768 53.5,151.5C 53.5,151.167 53.5,150.833 53.5,150.5C 54.8333,147.833 56.1667,147.833 57.5,150.5 Z"/></g>
<g><path style="opacity:0.004" fill="#000000" d="M 20.5,150.5 C 19.8333,151.167 19.8333,151.167 20.5,150.5 Z"/></g>
<g><path style="opacity:0.004" fill="#000000" d="M 21.5,150.5 C 21.8333,150.5 22.1667,150.5 22.5,150.5C 22.3147,151.17 21.9813,151.17 21.5,150.5 Z"/></g>
<g><path style="opacity:0.004" fill="#b8b8b8" d="M 86.5,150.5 C 87.1667,150.5 87.8333,150.5 88.5,150.5C 88.2144,152.933 87.5477,152.933 86.5,150.5 Z"/></g>
<g><path style="opacity:0.004" fill="#c6c6c6" d="M 116.5,151.5 C 117.067,152.42 116.401,152.754 114.5,152.5C 114.409,150.302 115.075,149.969 116.5,151.5 Z"/></g>
<g><path style="opacity:0.004" fill="#cfcfcf" d="M 47.5,151.5 C 46.779,153.382 45.779,153.715 44.5,152.5C 45.209,151.596 46.209,151.263 47.5,151.5 Z"/></g>
<g><path style="opacity:0.004" fill="#000000" d="M 52.5,151.5 C 52.8333,151.5 53.1667,151.5 53.5,151.5C 53.3147,152.17 52.9813,152.17 52.5,151.5 Z"/></g>
<g><path style="opacity:0.004" fill="#000000" d="M 49.5,152.5 C 48.8333,153.167 48.8333,153.167 49.5,152.5 Z"/></g>
<g><path style="opacity:0.004" fill="#000000" d="M 94.5,152.5 C 93.8333,153.167 93.8333,153.167 94.5,152.5 Z"/></g>
</svg>
