<?xml version="1.0" encoding="UTF-8"?>
<!DOCTYPE svg PUBLIC "-//W3C//DTD SVG 1.1//EN" "http://www.w3.org/Graphics/SVG/1.1/DTD/svg11.dtd">
<svg xmlns="http://www.w3.org/2000/svg" version="1.1" width="344px" height="340px" style="shape-rendering:geometricPrecision; text-rendering:geometricPrecision; image-rendering:optimizeQuality; fill-rule:evenodd; clip-rule:evenodd" xmlns:xlink="http://www.w3.org/1999/xlink">
<g><path style="opacity:0.996" fill="#5923c3" d="M 152.5,-0.5 C 164.833,-0.5 177.167,-0.5 189.5,-0.5C 257.048,9.53915 304.548,45.8725 332,108.5C 338.405,126.1 342.238,144.1 343.5,162.5C 343.5,166.833 343.5,171.167 343.5,175.5C 338.366,239.615 308.032,287.781 252.5,320C 232.538,330.268 211.538,336.768 189.5,339.5C 177.167,339.5 164.833,339.5 152.5,339.5C 80.8854,328.723 32.3854,289.39 7,221.5C 3.64552,210.214 1.14552,198.881 -0.5,187.5C -0.5,175.5 -0.5,163.5 -0.5,151.5C 11.2885,76.7955 53.2885,27.9622 125.5,5C 134.551,2.71871 143.551,0.885375 152.5,-0.5 Z"/></g>
<g><path style="opacity:1" fill="#fefefe" d="M 241.5,159.5 C 242.678,163.452 242.678,167.452 241.5,171.5C 240.766,172.708 240.433,174.041 240.5,175.5C 239.512,176.795 238.512,178.128 237.5,179.5C 235.087,181.887 232.42,184.054 229.5,186C 206.167,199.333 182.833,212.667 159.5,226C 147.561,230.273 137.894,227.44 130.5,217.5C 129.68,215.188 128.847,212.854 128,210.5C 127.5,181.169 127.333,151.835 127.5,122.5C 127.5,121.833 127.5,121.167 127.5,120.5C 132.665,105.581 142.999,100.081 158.5,104C 183.663,118.081 208.663,132.414 233.5,147C 237.561,150.291 240.227,154.457 241.5,159.5 Z"/></g>
<g><path style="opacity:1" fill="#5622bd" d="M 127.5,120.5 C 127.5,121.167 127.5,121.833 127.5,122.5C 126.517,126.298 126.183,130.298 126.5,134.5C 124.229,141.406 122.896,148.572 122.5,156C 123.491,172.187 123.491,188.52 122.5,205C 120.251,220.585 124.585,233.918 135.5,245C 144.165,249.903 153.165,250.57 162.5,247C 185.879,234.316 208.879,221.149 231.5,207.5C 244.716,197.317 248.05,185.317 241.5,171.5C 242.678,167.452 242.678,163.452 241.5,159.5C 244.721,160.882 247.221,163.215 249,166.5C 253.401,174.945 254.235,183.778 251.5,193C 251.833,193.333 252.167,193.667 252.5,194C 250.37,197.852 248.037,201.852 245.5,206C 241.792,209.71 237.792,213.043 233.5,216C 210.475,229.041 187.475,242.041 164.5,255C 160.1,257.029 155.933,257.529 152,256.5C 151.333,257.167 150.667,257.833 150,258.5C 142.994,256.499 136.16,253.999 129.5,251C 125.112,247.278 121.445,242.945 118.5,238C 119.089,236.127 118.422,234.46 116.5,233C 117.479,231.221 117.146,229.555 115.5,228C 115.833,227.667 116.167,227.333 116.5,227C 115.833,224.333 115.167,221.667 114.5,219C 115.628,195.411 115.628,171.744 114.5,148C 114.975,146.237 115.642,144.57 116.5,143C 116.5,140 116.5,137 116.5,134C 118.6,129.726 120.933,125.559 123.5,121.5C 124.689,120.571 126.022,120.238 127.5,120.5 Z"/></g>
<g><path style="opacity:1" fill="#5120b1" d="M 126.5,134.5 C 126.333,164.835 126.5,195.168 127,225.5C 129.621,237.984 137.287,244.984 150,246.5C 155.698,245.701 161.198,244.201 166.5,242C 188.523,228.99 210.523,215.99 232.5,203C 240.72,195.503 243.386,186.336 240.5,175.5C 240.433,174.041 240.766,172.708 241.5,171.5C 248.05,185.317 244.716,197.317 231.5,207.5C 208.879,221.149 185.879,234.316 162.5,247C 153.165,250.57 144.165,249.903 135.5,245C 124.585,233.918 120.251,220.585 122.5,205C 123.491,188.52 123.491,172.187 122.5,156C 122.896,148.572 124.229,141.406 126.5,134.5 Z"/></g>
<g><path style="opacity:1" fill="#5427ac" d="M 127.5,122.5 C 127.333,151.835 127.5,181.169 128,210.5C 128.847,212.854 129.68,215.188 130.5,217.5C 131.012,230.5 137.512,238.5 150,241.5C 153.273,240.992 156.773,240.159 160.5,239C 183.509,226.289 206.176,213.122 228.5,199.5C 234.904,194.052 237.904,187.385 237.5,179.5C 238.512,178.128 239.512,176.795 240.5,175.5C 243.386,186.336 240.72,195.503 232.5,203C 210.523,215.99 188.523,228.99 166.5,242C 161.198,244.201 155.698,245.701 150,246.5C 137.287,244.984 129.621,237.984 127,225.5C 126.5,195.168 126.333,164.835 126.5,134.5C 126.183,130.298 126.517,126.298 127.5,122.5 Z"/></g>
<g><path style="opacity:1" fill="#481e9a" d="M 237.5,179.5 C 237.904,187.385 234.904,194.052 228.5,199.5C 206.176,213.122 183.509,226.289 160.5,239C 156.773,240.159 153.273,240.992 150,241.5C 137.512,238.5 131.012,230.5 130.5,217.5C 137.894,227.44 147.561,230.273 159.5,226C 182.833,212.667 206.167,199.333 229.5,186C 232.42,184.054 235.087,181.887 237.5,179.5 Z"/></g>
</svg>
