<svg width="73" height="72" viewBox="0 0 73 72" fill="none" xmlns="http://www.w3.org/2000/svg">
<ellipse cx="36.0144" cy="35.6809" rx="36.0144" ry="35.6809" fill="#5923C4"/>
<g filter="url(#filter0_d_278_3266)">
<path d="M25.9836 27.3263C25.9836 23.4773 30.1503 21.0717 33.4836 22.9962L48.4718 31.6496C51.8051 33.5741 51.8051 38.3854 48.4718 40.3099L33.4836 48.9633C30.1503 50.8878 25.9836 48.4822 25.9836 44.6332L25.9836 27.3263Z" fill="url(#paint0_linear_278_3266)"/>
<path d="M25.9836 27.3263C25.9836 23.4773 30.1503 21.0717 33.4836 22.9962L48.4718 31.6496C51.8051 33.5741 51.8051 38.3854 48.4718 40.3099L33.4836 48.9633C30.1503 50.8878 25.9836 48.4822 25.9836 44.6332L25.9836 27.3263Z" fill="white"/>
</g>
<defs>
<filter id="filter0_d_278_3266" x="21.9834" y="22.3188" width="32.9883" height="35.3218" filterUnits="userSpaceOnUse" color-interpolation-filters="sRGB">
<feFlood flood-opacity="0" result="BackgroundImageFix"/>
<feColorMatrix in="SourceAlpha" type="matrix" values="0 0 0 0 0 0 0 0 0 0 0 0 0 0 0 0 0 0 127 0" result="hardAlpha"/>
<feOffset dy="4"/>
<feGaussianBlur stdDeviation="2"/>
<feComposite in2="hardAlpha" operator="out"/>
<feColorMatrix type="matrix" values="0 0 0 0 0 0 0 0 0 0 0 0 0 0 0 0 0 0 0.25 0"/>
<feBlend mode="normal" in2="BackgroundImageFix" result="effect1_dropShadow_278_3266"/>
<feBlend mode="normal" in="SourceGraphic" in2="effect1_dropShadow_278_3266" result="shape"/>
</filter>
<linearGradient id="paint0_linear_278_3266" x1="25.9836" y1="18.666" x2="45.9757" y2="53.2934" gradientUnits="userSpaceOnUse">
<stop stop-color="#A7B5FF"/>
<stop offset="1" stop-color="#FC7C1F"/>
</linearGradient>
</defs>
</svg>
