<?xml version="1.0" encoding="UTF-8"?>
<svg version="1.1" xmlns="http://www.w3.org/2000/svg" width="88" height="88">
<path d="M0 0 C8.95078058 6.64413684 16.81272094 16.83637103 18.7890625 28.0703125 C20.01996451 41.62581565 17.56526677 51.58854469 9.6640625 62.9453125 C1.73859616 72.34365312 -9.02431454 77.48213667 -21.0234375 78.8828125 C-33.21001828 79.59331024 -44.17935119 76.73819722 -53.7890625 68.9921875 C-58.78142359 64.26432236 -62.39887751 59.33403827 -65.2109375 53.0703125 C-65.52933594 52.420625 -65.84773438 51.7709375 -66.17578125 51.1015625 C-69.89790294 42.18219256 -69.65174535 30.17794252 -66.5859375 21.0703125 C-61.87901855 10.22963855 -54.36946259 0.80670323 -43.375 -4.12109375 C-28.05152089 -9.84665363 -14.05052831 -8.86035954 0 0 Z M-20.37304688 22.22875977 C-22.82383773 24.68443397 -22.72613989 26.04276655 -22.7421875 29.47265625 C-22.74734375 30.52775391 -22.7525 31.58285156 -22.7578125 32.66992188 C-22.74234375 33.77142578 -22.726875 34.87292969 -22.7109375 36.0078125 C-22.72640625 37.10544922 -22.741875 38.20308594 -22.7578125 39.33398438 C-22.75265625 40.39037109 -22.7475 41.44675781 -22.7421875 42.53515625 C-22.73767578 43.5005835 -22.73316406 44.46601074 -22.72851562 45.46069336 C-22.06565132 48.80284266 -20.89243558 50.02376264 -18.2109375 52.0703125 C-15.07731032 52.15923589 -15.07731032 52.15923589 -12.2109375 51.0703125 C-10.0436641 47.8194024 -9.95494914 46.86685737 -9.9453125 43.10546875 C-9.94273438 42.14060547 -9.94015625 41.17574219 -9.9375 40.18164062 C-9.94523437 39.17552734 -9.95296875 38.16941406 -9.9609375 37.1328125 C-9.95320313 36.13056641 -9.94546875 35.12832031 -9.9375 34.09570312 C-9.94136719 32.64647461 -9.94136719 32.64647461 -9.9453125 31.16796875 C-9.94869629 29.84551147 -9.94869629 29.84551147 -9.95214844 28.49633789 C-10.23216521 25.8713127 -10.74607981 24.26175683 -12.2109375 22.0703125 C-15.49638262 20.9989717 -17.27511656 20.56890437 -20.37304688 22.22875977 Z M-37.2109375 23.0703125 C-37.32682912 27.34091868 -37.39808552 31.61112234 -37.4609375 35.8828125 C-37.49445312 37.09775391 -37.52796875 38.31269531 -37.5625 39.56445312 C-37.57539062 40.72783203 -37.58828125 41.89121094 -37.6015625 43.08984375 C-37.62250977 44.16339111 -37.64345703 45.23693848 -37.66503906 46.34301758 C-37.45625895 49.17173436 -37.45625895 49.17173436 -35.38574219 50.98706055 C-33.12031483 52.39799228 -33.12031483 52.39799228 -30.0234375 51.3828125 C-27.10455743 50.37538128 -27.10455743 50.37538128 -26.2109375 48.0703125 C-25.91577778 44.09725912 -25.93298986 40.11554752 -25.8984375 36.1328125 C-25.85493164 34.46702148 -25.85493164 34.46702148 -25.81054688 32.76757812 C-25.80216797 31.70345703 -25.79378906 30.63933594 -25.78515625 29.54296875 C-25.77057373 28.56593994 -25.75599121 27.58891113 -25.7409668 26.58227539 C-25.98615621 23.9329331 -25.98615621 23.9329331 -28.11254883 22.22827148 C-31.66934733 20.26551461 -33.63845228 21.5661082 -37.2109375 23.0703125 Z " fill="#9B79E1" transform="translate(69.2109375,7.9296875)"/>
<path d="M0 0 C1.32 0 2.64 0 4 0 C4.66 0.99 5.32 1.98 6 3 C6.33 2.34 6.66 1.68 7 1 C12.5255814 0.74883721 12.5255814 0.74883721 15.125 2.125 C15.74375 2.41375 16.3625 2.7025 17 3 C19.23470405 2.21690533 19.23470405 2.21690533 21 1 C22.02691627 5.67817411 21.73022116 9.29413033 21 14 C20.91541134 16.67394157 20.95304796 19.32373363 21 22 C18.62124245 19.62124245 18.71596941 18.87533968 18.5 15.625 C18.27684587 12.28884582 17.84921683 9.83337629 16 7 C13.08333333 6 13.08333333 6 10 6 C6.75150023 7.72226496 6.75150023 7.72226496 6 11 C4.68 11 3.36 11 2 11 C1.7525 10.360625 1.505 9.72125 1.25 9.0625 C0.19520442 6.88131102 0.19520442 6.88131102 -1.8125 6.1875 C-4.37960051 5.96746281 -6.49274129 6.45710596 -9 7 C-8.9278125 7.95519531 -8.855625 8.91039062 -8.78125 9.89453125 C-8.6884375 11.18746094 -8.595625 12.48039062 -8.5 13.8125 C-8.45085449 14.49086914 -8.40170898 15.16923828 -8.35107422 15.86816406 C-8.01247512 20.87754304 -7.99931232 25.81018025 -8.2578125 30.828125 C-7.9386875 33.51651136 -7.06827833 34.33238292 -5 36 C-6.485 36.495 -6.485 36.495 -8 37 C-11.43130742 33.56869258 -12.25625649 32.56144915 -12.4140625 27.66015625 C-12.47207031 26.0659082 -12.47207031 26.0659082 -12.53125 24.43945312 C-12.5621875 23.32505859 -12.593125 22.21066406 -12.625 21.0625 C-12.66367187 19.95197266 -12.70234375 18.84144531 -12.7421875 17.69726562 C-12.8744852 13.79684594 -13 9.9028147 -13 6 C-10.28505068 3.28505068 -7.78527931 3.23368715 -4.09375 2.5625 C-1.8002393 2.1331915 -1.8002393 2.1331915 0 0 Z " fill="#C8BCEF" transform="translate(41,24)"/>
<path d="M0 0 C2.19331477 3.48349993 1.80265162 5.07410533 1 9 C0.49344443 17.61144469 0.63351272 25.00459271 4 33 C4.66 33 5.32 33 6 33 C7.625 35.5 7.625 35.5 9 38 C9.99 37.34 10.98 36.68 12 36 C12.33 36.33 12.66 36.66 13 37 C12.979375 37.9075 12.95875 38.815 12.9375 39.75 C13.00215399 43.11200761 13.37416567 45.07349821 15 48 C16.91666667 49.16666667 16.91666667 49.16666667 19 50 C20.75 51.625 20.75 51.625 22 53 C21.01 53.495 21.01 53.495 20 54 C8.74913316 46.36975786 1.20858984 37.30056473 -2 24 C-2.26536221 21.15974207 -2.28059954 18.35085736 -2.25 15.5 C-2.25773438 14.77941406 -2.26546875 14.05882812 -2.2734375 13.31640625 C-2.25609478 8.52114376 -1.50940686 4.55217941 0 0 Z " fill="#9C79D5" transform="translate(3,28)"/>
<path d="M0 0 C1.32 0 2.64 0 4 0 C4.01458252 0.61520508 4.02916504 1.23041016 4.04418945 1.86425781 C4.11880577 4.66012854 4.2154198 7.45482287 4.3125 10.25 C4.33505859 11.21808594 4.35761719 12.18617187 4.38085938 13.18359375 C4.41630859 14.11816406 4.45175781 15.05273438 4.48828125 16.015625 C4.51446533 16.87446289 4.54064941 17.73330078 4.56762695 18.61816406 C5.07816904 21.43061385 6.14370135 22.8649324 8 25 C7.01 25.66 6.02 26.32 5 27 C4.01 26.67 3.02 26.34 2 26 C-0.33006911 25.64456573 -2.66327016 25.3086247 -5 25 C-4.67 24.34 -4.34 23.68 -4 23 C-3.34 23 -2.68 23 -2 23 C-0.79729036 20.59458071 -0.79683337 18.89633409 -0.68359375 16.2109375 C-0.64169922 15.26992188 -0.59980469 14.32890625 -0.55664062 13.359375 C-0.51732422 12.37453125 -0.47800781 11.3896875 -0.4375 10.375 C-0.39431641 9.38242187 -0.35113281 8.38984375 -0.30664062 7.3671875 C-0.20038931 4.91160162 -0.09835036 2.45591297 0 0 Z " fill="#A694C2" transform="translate(43,35)"/>
<path d="M0 0 C0.99 0.33 1.98 0.66 3 1 C2.98428955 1.83249268 2.9685791 2.66498535 2.95239258 3.52270508 C2.90123358 6.61447856 2.8636352 9.70603618 2.83520508 12.7980957 C2.81271667 14.79327701 2.77459802 16.78826213 2.73632812 18.78320312 C2.72666016 20.03681641 2.71699219 21.29042969 2.70703125 22.58203125 C2.6913208 23.73936768 2.67561035 24.8967041 2.65942383 26.08911133 C2.7423025 29.02107978 2.7423025 29.02107978 4.51831055 30.90112305 C5.00726807 31.26375244 5.49622559 31.62638184 6 32 C4.515 32.495 4.515 32.495 3 33 C-0.43130742 29.56869258 -1.25625649 28.56144915 -1.4140625 23.66015625 C-1.47207031 22.0659082 -1.47207031 22.0659082 -1.53125 20.43945312 C-1.5621875 19.32505859 -1.593125 18.21066406 -1.625 17.0625 C-1.66367187 15.95197266 -1.70234375 14.84144531 -1.7421875 13.69726562 C-1.8744852 9.79684594 -2 5.9028147 -2 2 C-1.34 1.34 -0.68 0.68 0 0 Z " fill="#BFAFD8" transform="translate(30,28)"/>
<path d="M0 0 C0.66 0.66 1.32 1.32 2 2 C1.67 2.99 1.34 3.98 1 5 C-0.98 5 -2.96 5 -5 5 C-5 4.34 -5 3.68 -5 3 C-6.32 3 -7.64 3 -9 3 C-9 2.34 -9 1.68 -9 1 C-9.804375 1.020625 -10.60875 1.04125 -11.4375 1.0625 C-14 1 -14 1 -15 0 C-17.35313555 -0.07271741 -19.70833668 -0.08370868 -22.0625 -0.0625 C-23.35285156 -0.05347656 -24.64320312 -0.04445312 -25.97265625 -0.03515625 C-26.97167969 -0.02355469 -27.97070312 -0.01195312 -29 0 C-20.4383533 -5.70776447 -9.19119834 -2.83807541 0 0 Z " fill="#AEA2DE" transform="translate(60,3)"/>
<path d="M0 0 C0 1.32 0 2.64 0 4 C-3.64793184 5.27253436 -7.1936543 6.32829194 -11 7 C-11.33 7.99 -11.66 8.98 -12 10 C-12.66 10 -13.32 10 -14 10 C-14 10.66 -14 11.32 -14 12 C-18.35294118 16 -18.35294118 16 -22 16 C-18.71429163 8.25264553 -8.60966407 0 0 0 Z " fill="#9B87D3" transform="translate(31,3)"/>
<path d="M0 0 C2.19424927 3.48498414 1.8008247 5.07214552 1 9 C0.53698247 17.03157324 0.29647312 23.74725986 4 31 C4.1875 34.4375 4.1875 34.4375 4 37 C1.14665887 35.57332943 0.96511832 33.97158179 -0.125 31 C-1.84642291 25.63661145 -2.37377933 20.76841494 -2.375 15.1875 C-2.3764502 14.48302734 -2.37790039 13.77855469 -2.37939453 13.05273438 C-2.28073621 8.34817347 -1.4468975 4.42750635 0 0 Z " fill="#A58DD3" transform="translate(3,28)"/>
<path d="M0 0 C2.625 0.375 2.625 0.375 5 1 C2.375 5.875 2.375 5.875 -1 7 C-0.67 7.99 -0.34 8.98 0 10 C-1 12.125 -1 12.125 -3 14 C-6.6875 14.75 -6.6875 14.75 -10 15 C-10 14.34 -10 13.68 -10 13 C-9.34 13 -8.68 13 -8 13 C-8.66 12.34 -9.32 11.68 -10 11 C-9.67 10.01 -9.34 9.02 -9 8 C-6.69 8 -4.38 8 -2 8 C-2.04125 7.05125 -2.0825 6.1025 -2.125 5.125 C-2 2 -2 2 0 0 Z " fill="#8B61CE" transform="translate(74,64)"/>
<path d="M0 0 C0 0.99 0 1.98 0 3 C-4.79255457 5.47516707 -9.36359063 5.33242958 -14.625 5.3125 C-15.91277344 5.33666992 -15.91277344 5.33666992 -17.2265625 5.36132812 C-18.0515625 5.36197266 -18.8765625 5.36261719 -19.7265625 5.36328125 C-20.47502441 5.36626221 -21.22348633 5.36924316 -21.99462891 5.37231445 C-24 5 -24 5 -27 2 C-23.04 2.33 -19.08 2.66 -15 3 C-15 2.01 -15 1.02 -15 0 C-14.01 0.33 -13.02 0.66 -12 1 C-8.8595492 1.14290256 -8.8595492 1.14290256 -5.4375 -0.0625 C-2 -1 -2 -1 0 0 Z " fill="#895CCE" transform="translate(63,80)"/>
<path d="M0 0 C0.99 0 1.98 0 3 0 C3.05391993 1.79133978 3.09275571 3.58313899 3.125 5.375 C3.14820313 6.37273438 3.17140625 7.37046875 3.1953125 8.3984375 C3 11 3 11 1 13 C0.5034233 18.66097442 1.34665664 22.75938222 3.44140625 28.01953125 C4 30 4 30 3 33 C-3.11895715 22.92011076 -1.57761271 11.24049058 0 0 Z " fill="#8A64D4" transform="translate(4,28)"/>
<path d="M0 0 C4.05092246 4.05092246 4.125 10.55868904 4.125 16.0625 C4.08375 17.361875 4.0425 18.66125 4 20 C3.34 19.67 2.68 19.34 2 19 C1.64159778 16.67038557 1.31151288 14.33634657 1 12 C0.649375 11.154375 0.29875 10.30875 -0.0625 9.4375 C-1.19750037 6.48649905 -1.21381839 4.13600307 -1 1 C-0.67 0.67 -0.34 0.34 0 0 Z " fill="#9A81CE" transform="translate(83,26)"/>
<path d="M0 0 C1.9587043 0.14076315 3.91696093 0.2877676 5.875 0.4375 C7.51082031 0.55931641 7.51082031 0.55931641 9.1796875 0.68359375 C12 1 12 1 14 2 C16.54615009 2.23172827 19.07396225 2.41894529 21.625 2.5625 C22.33140625 2.60568359 23.0378125 2.64886719 23.765625 2.69335938 C25.51018537 2.79944751 27.25506697 2.90022889 29 3 C29 3.33 29 3.66 29 4 C18.85376402 5.33124373 9.51039078 5.09067625 0 1 C0 0.67 0 0.34 0 0 Z " fill="#BDA3DD" transform="translate(25,82)"/>
<path d="M0 0 C0.33 0 0.66 0 1 0 C1.19766544 3.56201195 1.38133629 7.12461367 1.5625 10.6875 C1.61857422 11.69490234 1.67464844 12.70230469 1.73242188 13.74023438 C1.78076172 14.71669922 1.82910156 15.69316406 1.87890625 16.69921875 C1.9260376 17.59471436 1.97316895 18.49020996 2.02172852 19.4128418 C1.99942695 22.06823177 1.60392668 24.41958599 1 27 C0.01 27.33 -0.98 27.66 -2 28 C-2.99 26.68 -3.98 25.36 -5 24 C-4.01 23.67 -3.02 23.34 -2 23 C-0.79729036 20.59458071 -0.79683337 18.89633409 -0.68359375 16.2109375 C-0.64169922 15.26992188 -0.59980469 14.32890625 -0.55664062 13.359375 C-0.51732422 12.37453125 -0.47800781 11.3896875 -0.4375 10.375 C-0.39431641 9.38242187 -0.35113281 8.38984375 -0.30664062 7.3671875 C-0.20038931 4.91160162 -0.09835036 2.45591297 0 0 Z " fill="#A691C6" transform="translate(59,35)"/>
<path d="M0 0 C0.66 0 1.32 0 2 0 C1.47515308 4.55700425 -0.31507303 7.192874 -3.0625 10.8125 C-3.79597656 11.78832031 -4.52945313 12.76414062 -5.28515625 13.76953125 C-5.85105469 14.50558594 -6.41695313 15.24164063 -7 16 C-7.66 15.67 -8.32 15.34 -9 15 C-9 14.01 -9 13.02 -9 12 C-7.33333333 10.33333333 -5.66666667 8.66666667 -4 7 C-2.5183598 4.72310244 -1.27330123 2.40512455 0 0 Z " fill="#9D7FCA" transform="translate(82,59)"/>
<path d="M0 0 C2.20435742 3.30653613 2.27260948 4.18346732 2 8 C1.835 8.763125 1.67 9.52625 1.5 10.3125 C0.82852317 13.92168794 0.9378007 17.33024133 1 21 C-1.81845088 18.18154912 -1.40436792 16.05551969 -1.625 12.125 C-1.69976562 10.89007813 -1.77453125 9.65515625 -1.8515625 8.3828125 C-1.9594662 5.9237439 -2 3.46143486 -2 1 C-1.34 0.67 -0.68 0.34 0 0 Z " fill="#BBA9E4" transform="translate(61,25)"/>
<path d="M0 0 C3.58806317 3.38872633 6.45684799 6.76141332 9 11 C9 11.66 9 12.32 9 13 C8.01 13 7.02 13 6 13 C5.34 11.02 4.68 9.04 4 7 C2.02 7.33 0.04 7.66 -2 8 C-1.67 7.01 -1.34 6.02 -1 5 C-0.34 5 0.32 5 1 5 C0.67 3.35 0.34 1.7 0 0 Z " fill="#A693D4" transform="translate(74,13)"/>
<path d="M0 0 C1.65 1.65 3.3 3.3 5 5 C4.01 5.99 3.02 6.98 2 8 C1.01 7.67 0.02 7.34 -1 7 C-3.33006911 6.64456573 -5.66327016 6.3086247 -8 6 C-7.67 5.34 -7.34 4.68 -7 4 C-6.34 4 -5.68 4 -5 4 C-4.67 3.34 -4.34 2.68 -4 2 C-3.01 2 -2.02 2 -1 2 C-0.67 1.34 -0.34 0.68 0 0 Z " fill="#A790CD" transform="translate(46,54)"/>
<path d="M0 0 C1.98 0.66 3.96 1.32 6 2 C6 2.99 6 3.98 6 5 C9.62197194 6.49140021 13.27566618 7.7874262 17 9 C17 9.66 17 10.32 17 11 C14.36 10.67 11.72 10.34 9 10 C8.67 9.01 8.34 8.02 8 7 C6.67592331 6.31513275 5.34090759 5.65129797 4 5 C1.75 2.9375 1.75 2.9375 0 1 C0 0.67 0 0.34 0 0 Z " fill="#8C61D1" transform="translate(16,72)"/>
<path d="M0 0 C1.32 0 2.64 0 4 0 C4 4.29 4 8.58 4 13 C3.01 13 2.02 13 1 13 C0.67 8.71 0.34 4.42 0 0 Z " fill="#B5A6D1" transform="translate(43,35)"/>
<path d="M0 0 C1.485 0.99 1.485 0.99 3 2 C5.33199388 2.07905064 7.66832622 2.08798769 10 2 C9.67 3.65 9.34 5.3 9 7 C6.01644824 7.24862931 4.35134151 7.18991433 1.6875 5.75 C0 4 0 4 0 0 Z " fill="#8665B3" transform="translate(31,58)"/>
<path d="M0 0 C1.9947459 2.99211885 2.28897443 3.96465988 2.5625 7.375 C2.79489735 9.9736249 3.08061443 12.37888782 3.625 14.9375 C4 17 4 17 3 19 C2.01 18.67 1.02 18.34 0 18 C0 12.06 0 6.12 0 0 Z " fill="#AB8AE0" transform="translate(60,44)"/>
<path d="M0 0 C0.66 0 1.32 0 2 0 C1.67 3.63 1.34 7.26 1 11 C0.01 11 -0.98 11 -2 11 C-2.66 12.65 -3.32 14.3 -4 16 C-5.20046137 12.3986159 -4.73287623 11.85032966 -3.125 8.5625 C-1.74705655 5.7150714 -0.66343688 3.09839136 0 0 Z " fill="#8F6ECA" transform="translate(84,48)"/>
<path d="M0 0 C-3.58083091 2.3872206 -5.1425103 3.1257166 -9.3515625 3.09765625 C-10.20234375 3.09443359 -11.053125 3.09121094 -11.9296875 3.08789062 C-12.81914063 3.07951172 -13.70859375 3.07113281 -14.625 3.0625 C-15.5221875 3.05798828 -16.419375 3.05347656 -17.34375 3.04882812 C-19.56256648 3.03702591 -21.78125018 3.02056155 -24 3 C-24 2.67 -24 2.34 -24 2 C-23.03578125 1.93941406 -22.0715625 1.87882812 -21.078125 1.81640625 C-19.81484375 1.73261719 -18.5515625 1.64882812 -17.25 1.5625 C-15.99703125 1.48128906 -14.7440625 1.40007812 -13.453125 1.31640625 C-8.80253351 0.89027739 -4.72070643 -0.10728878 0 0 Z " fill="#A185CE" transform="translate(63,82)"/>
<path d="M0 0 C0.89203125 0.00902344 1.7840625 0.01804688 2.703125 0.02734375 C3.37859375 0.03894531 4.0540625 0.05054687 4.75 0.0625 C1.52208445 2.2144437 0.46599191 2.26336443 -3.25 2.0625 C-3.25 2.7225 -3.25 3.3825 -3.25 4.0625 C-5.23 4.0625 -7.21 4.0625 -9.25 4.0625 C-9.25 3.0725 -9.25 2.0825 -9.25 1.0625 C-6.09493858 0.12630187 -3.28413498 -0.0432123 0 0 Z " fill="#8B78D0" transform="translate(40.25,1.9375)"/>
<path d="M0 0 C3.12493704 3.12493704 3.95911133 5.91645015 4.125 10.3125 C4.08375 11.199375 4.0425 12.08625 4 13 C1.45615274 11.72807637 1.30631844 10.80051531 0.3125 8.1875 C0.04050781 7.50042969 -0.23148437 6.81335937 -0.51171875 6.10546875 C-1.06812731 3.70623504 -0.77364938 2.3105636 0 0 Z " fill="#AD91D8" transform="translate(3,52)"/>
<path d="M0 0 C-0.1875 2.375 -0.1875 2.375 -1 5 C-3.4375 6.25 -3.4375 6.25 -6 7 C-6.99 7.495 -6.99 7.495 -8 8 C-7.1875 4.5625 -7.1875 4.5625 -6 1 C-3 0 -3 0 0 0 Z " fill="#8364D4" transform="translate(15,18)"/>
<path d="M0 0 C0.99 0 1.98 0 3 0 C3 3.63 3 7.26 3 11 C2.01 11 1.02 11 0 11 C0 7.37 0 3.74 0 0 Z " fill="#845FCD" transform="translate(4,28)"/>
<path d="M0 0 C4.875 1.75 4.875 1.75 6 4 C5.0625 6.125 5.0625 6.125 4 8 C3.34 8 2.68 8 2 8 C2.33 6.68 2.66 5.36 3 4 C1.68 4.33 0.36 4.66 -1 5 C-0.67 3.35 -0.34 1.7 0 0 Z " fill="#9C88E7" transform="translate(67,12)"/>
<path d="M0 0 C1.67542976 0.28604898 3.34385343 0.61781233 5 1 C3.68 2.65 2.36 4.3 1 6 C0.01 5.67 -0.98 5.34 -2 5 C-1.125 1.125 -1.125 1.125 0 0 Z " fill="#8D5EDA" transform="translate(74,64)"/>
<path d="M0 0 C0 1.32 0 2.64 0 4 C-2.8125 4.625 -2.8125 4.625 -6 5 C-6.99 4.34 -7.98 3.68 -9 3 C-3.375 -0 -3.375 -0 0 0 Z " fill="#A08FD9" transform="translate(31,3)"/>
<path d="M0 0 C1.32 0 2.64 0 4 0 C4.33 1.65 4.66 3.3 5 5 C2.03 4.505 2.03 4.505 -1 4 C-1 1 -1 1 0 0 Z " fill="#BDADF7" transform="translate(41,24)"/>
<path d="M0 0 C1.46313772 0.76167457 2.92036661 1.53470707 4.375 2.3125 C5.18710938 2.74175781 5.99921875 3.17101562 6.8359375 3.61328125 C9 5 9 5 11 8 C6.20751466 6.84319319 3.32831611 5.7873942 0 2 C0 1.34 0 0.68 0 0 Z " fill="#AB9FD6" transform="translate(63,5)"/>
<path d="M0 0 C1.98 0 3.96 0 6 0 C6.33 0.99 6.66 1.98 7 3 C4.39417629 3.93065133 3.35801776 4.14917407 0.75 3.0625 C0.1725 2.711875 -0.405 2.36125 -1 2 C-0.67 1.34 -0.34 0.68 0 0 Z " fill="#8768AC" transform="translate(50,60)"/>
<path d="M0 0 C4.31392226 0.4793247 6.16569547 1.7457985 9 5 C8.01 5.495 8.01 5.495 7 6 C5.83054208 5.19152271 4.66449539 4.37810888 3.5 3.5625 C2.8503125 3.11003906 2.200625 2.65757813 1.53125 2.19140625 C1.0259375 1.79824219 0.520625 1.40507813 0 1 C0 0.67 0 0.34 0 0 Z " fill="#C0A9E0" transform="translate(16,76)"/>
<path d="M0 0 C4.455 0.99 4.455 0.99 9 2 C9 2.66 9 3.32 9 4 C6.36 3.67 3.72 3.34 1 3 C0.67 2.01 0.34 1.02 0 0 Z " fill="#926CC9" transform="translate(24,79)"/>
<path d="M0 0 C0.66 0 1.32 0 2 0 C2.125 3.375 2.125 3.375 2 7 C1.34 7.66 0.68 8.32 0 9 C-1.125 3.375 -1.125 3.375 0 0 Z " fill="#A382E5" transform="translate(27,45)"/>
<path d="M0 0 C0.99 0.66 1.98 1.32 3 2 C3.1875 4.625 3.1875 4.625 3 7 C1.35 7.33 -0.3 7.66 -2 8 C-1.67 7.01 -1.34 6.02 -1 5 C-0.34 5 0.32 5 1 5 C0.67 3.35 0.34 1.7 0 0 Z " fill="#A28EDF" transform="translate(74,13)"/>
<path d="M0 0 C0.66 0 1.32 0 2 0 C1.50168276 3.68754757 0.89932357 5.60490662 -2 8 C-2.20086443 4.28400809 -2.1519437 3.22791555 0 0 Z " fill="#AE95D0" transform="translate(82,59)"/>
<path d="M0 0 C0.99 0.33 1.98 0.66 3 1 C2.67 1.99 2.34 2.98 2 4 C1.34 4 0.68 4 0 4 C-0.33 4.66 -0.66 5.32 -1 6 C-1.66 5.01 -2.32 4.02 -3 3 C-2.01 2.01 -1.02 1.02 0 0 Z " fill="#AD96E7" transform="translate(30,28)"/>
<path d="M0 0 C2.1519437 3.22791555 2.20086443 4.28400809 2 8 C1.01 8.495 1.01 8.495 0 9 C-0.66 6.36 -1.32 3.72 -2 1 C-1.34 0.67 -0.68 0.34 0 0 Z " fill="#BCABF6" transform="translate(61,25)"/>
<path d="M0 0 C2.475 0.495 2.475 0.495 5 1 C4.67 2.32 4.34 3.64 4 5 C2.68 4.67 1.36 4.34 0 4 C0 2.68 0 1.36 0 0 Z " fill="#A093DA" transform="translate(57,3)"/>
<path d="M0 0 C0.99 0 1.98 0 3 0 C3.33 0.99 3.66 1.98 4 3 C3.01 3.66 2.02 4.32 1 5 C0.34 4.67 -0.32 4.34 -1 4 C-0.67 2.68 -0.34 1.36 0 0 Z " fill="#9D82ED" transform="translate(75,20)"/>
<path d="" fill="#FFFFFF" transform="translate(0,0)"/>
<path d="" fill="#FFFFFE" transform="translate(0,0)"/>
<path d="" fill="#FFFEFF" transform="translate(0,0)"/>
<path d="" fill="#FFFFFF" transform="translate(0,0)"/>
<path d="" fill="#FFFFFE" transform="translate(0,0)"/>
<path d="" fill="#FFFFFF" transform="translate(0,0)"/>
<path d="" fill="#FFFFFF" transform="translate(0,0)"/>
<path d="" fill="#FFFFFF" transform="translate(0,0)"/>
<path d="" fill="#FFFFFF" transform="translate(0,0)"/>
<path d="" fill="#FFFFFE" transform="translate(0,0)"/>
<path d="" fill="#FFFFFF" transform="translate(0,0)"/>
<path d="" fill="#FFFFFF" transform="translate(0,0)"/>
<path d="" fill="#FFFFFF" transform="translate(0,0)"/>
<path d="" fill="#FFFFFF" transform="translate(0,0)"/>
<path d="" fill="#FFFFFF" transform="translate(0,0)"/>
<path d="" fill="#FFFFFF" transform="translate(0,0)"/>
<path d="" fill="#FFFFFF" transform="translate(0,0)"/>
<path d="" fill="#FFFFFF" transform="translate(0,0)"/>
<path d="" fill="#FFFF00" transform="translate(0,0)"/>
<path d="" fill="#FFFFFF" transform="translate(0,0)"/>
<path d="" fill="#FFFFFF" transform="translate(0,0)"/>
<path d="" fill="#FFFFFF" transform="translate(0,0)"/>
<path d="" fill="#FFFFFF" transform="translate(0,0)"/>
<path d="" fill="#00FFFF" transform="translate(0,0)"/>
<path d="" fill="#FFFFFF" transform="translate(0,0)"/>
<path d="" fill="#FFFFFF" transform="translate(0,0)"/>
</svg>
