<?xml version="1.0" encoding="UTF-8"?>
<svg version="1.1" xmlns="http://www.w3.org/2000/svg" width="538" height="464">
<path d="M0 0 C0.82532227 0.22204102 1.65064453 0.44408203 2.50097656 0.67285156 C12.26036581 3.33716849 21.64566092 6.40373733 30.859375 10.60546875 C33.17368454 11.63309127 35.40881152 12.50672628 37.7890625 13.33984375 C42.70470266 15.15565215 47.11693348 17.72740537 51.625 20.375 C52.44484375 20.84421875 53.2646875 21.3134375 54.109375 21.796875 C57.66087764 23.8638267 61.03730269 25.90689504 64.1484375 28.6015625 C66.72186846 30.7660647 69.26505139 32.29540276 72.20117188 33.90527344 C75.52704245 35.92932388 78.35294283 38.54015033 81.25 41.125 C81.89461182 41.69323486 82.53922363 42.26146973 83.20336914 42.84692383 C84.51147334 44.00282875 85.81692858 45.1617388 87.11962891 46.32373047 C88.87876185 47.89192143 90.64716998 49.44891869 92.41796875 51.00390625 C93.42519184 51.89763496 94.43174655 52.79211776 95.4375 53.6875 C96.32308594 54.47511719 97.20867187 55.26273438 98.12109375 56.07421875 C100 58 100 58 100 60 C100.66 60 101.32 60 102 60 C103.43812673 61.56940801 104.8003005 63.20874035 106.125 64.875 C107.33542969 66.39480469 107.33542969 66.39480469 108.5703125 67.9453125 C109.37210937 68.95335938 110.17390625 69.96140625 111 71 C111.67804688 71.80179687 112.35609375 72.60359375 113.0546875 73.4296875 C144.00166255 110.34234448 156.21926988 163.50012917 152.25 210.625 C148.61535652 248.88646201 134.57723851 287.79613812 109 317 C108.02949879 318.14956552 107.06090541 319.30074317 106.09375 320.453125 C98.55369228 329.40282522 90.95420724 337.41566569 81.796875 344.75390625 C80.07921029 346.13331576 78.37716181 347.53280206 76.703125 348.96484375 C64.28281713 359.43644815 49.64463317 367.12450406 35 374 C33.7924707 374.58998779 33.7924707 374.58998779 32.56054688 375.19189453 C25.35593154 378.6223514 18.05341883 380.98713887 10.375 383.125 C9.14458984 383.47119385 7.91417969 383.8173877 6.64648438 384.17407227 C-11.51835565 389.1841986 -29.09532325 391.18230008 -47.9375 391.125 C-49.20529297 391.12886719 -50.47308594 391.13273437 -51.77929688 391.13671875 C-64.11177847 391.12407653 -75.97492894 390.30208628 -88.0625 387.8125 C-89.13741699 387.59255371 -90.21233398 387.37260742 -91.31982422 387.14599609 C-106.18703837 384.00807055 -120.4624087 379.97652056 -134.01171875 373.02001953 C-136.21719645 371.88857481 -138.4368301 370.78742025 -140.65625 369.68359375 C-150.7743523 364.57999622 -160.06800017 358.96897701 -169 352 C-169.96848877 351.25145752 -169.96848877 351.25145752 -170.95654297 350.48779297 C-180.27665215 343.2427859 -188.90683944 335.59351052 -197 327 C-197.61746094 326.35160156 -198.23492187 325.70320313 -198.87109375 325.03515625 C-221.90299085 299.79396447 -237.30915 268.15410412 -245 235 C-245.15839355 234.3203418 -245.31678711 233.64068359 -245.47998047 232.94042969 C-250.07237041 212.26725989 -249.90795741 190.01303902 -248 169 C-247.89945312 167.77410156 -247.79890625 166.54820312 -247.6953125 165.28515625 C-243.59762087 126.77521759 -224.14454096 90.74780851 -199 62 C-198.10117203 60.87791684 -197.20272734 59.75552653 -196.3046875 58.6328125 C-195.54414063 57.76398438 -194.78359375 56.89515625 -194 56 C-193.34 56 -192.68 56 -192 56 C-192 55.34 -192 54.68 -192 54 C-191.34 54 -190.68 54 -190 54 C-190 53.34 -190 52.68 -190 52 C-188.70703125 50.66015625 -188.70703125 50.66015625 -186.8125 49.0625 C-186.07515625 48.43988281 -185.3378125 47.81726563 -184.578125 47.17578125 C-183.30195313 46.09876953 -183.30195313 46.09876953 -182 45 C-181.06671875 44.16855469 -180.1334375 43.33710937 -179.171875 42.48046875 C-171.25932342 35.48461522 -162.83068099 29.69957751 -153.85351562 24.15136719 C-152.33260075 23.20660499 -150.827923 22.23575096 -149.328125 21.2578125 C-125.02786982 5.75592558 -95.29451322 -1.72514621 -67 -5 C-66.30922363 -5.08411133 -65.61844727 -5.16822266 -64.90673828 -5.25488281 C-43.79512214 -7.67464392 -20.45672607 -5.6178341 0 0 Z M-100 131 C-100 131.66 -100 132.32 -100 133 C-100.66 133 -101.32 133 -102 133 C-103.33542241 134.61307864 -103.33542241 134.61307864 -104.5625 136.6875 C-105.21412109 137.71423828 -105.21412109 137.71423828 -105.87890625 138.76171875 C-108.57946753 144.15343169 -108.15406246 149.99133296 -108.16113281 155.87988281 C-108.16609772 156.87077408 -108.17106262 157.86166534 -108.17617798 158.88258362 C-108.19076571 162.15610452 -108.19759615 165.42957695 -108.203125 168.703125 C-108.20887944 170.98370362 -108.21463714 173.26428223 -108.22039795 175.54486084 C-108.23089844 180.32629623 -108.23674727 185.10771486 -108.24023438 189.88916016 C-108.24571563 196.00329819 -108.26974003 202.11721314 -108.29820633 208.23128128 C-108.31686916 212.94287759 -108.32204027 217.65442057 -108.32357025 222.36605072 C-108.32658929 224.61940479 -108.33459244 226.87275809 -108.34775543 229.12607574 C-108.36489114 232.28506742 -108.36291711 235.44351923 -108.35644531 238.60253906 C-108.3656601 239.52545242 -108.37487488 240.44836578 -108.3843689 241.39924622 C-108.34573702 247.44674228 -107.23965595 252.39165333 -105 258 C-104.649375 258.9075 -104.29875 259.815 -103.9375 260.75 C-100.16852015 265.12687983 -94.54798288 267.29523878 -89.0625 268.8125 C-77.78705702 269.50283324 -68.12216499 269.40290995 -59 262 C-55.54464676 257.57005995 -53.88278133 254.11029071 -53.85282898 248.51704407 C-53.84567368 247.59892441 -53.83851837 246.68080475 -53.83114624 245.73486328 C-53.82845734 244.72963623 -53.82576843 243.72440918 -53.82299805 242.6887207 C-53.81642685 241.6282402 -53.80985565 240.5677597 -53.80308533 239.47514343 C-53.78334334 235.95868867 -53.77168714 232.44227666 -53.76171875 228.92578125 C-53.75764322 227.72493582 -53.7535677 226.52409039 -53.74936867 225.2868557 C-53.72850324 218.92992703 -53.71420402 212.57301997 -53.70483398 206.21606445 C-53.6937738 199.65331373 -53.65937925 193.09090246 -53.61966228 186.52827168 C-53.59350231 181.47958246 -53.58514262 176.43097416 -53.58155251 171.38222313 C-53.57668432 168.96335752 -53.56506383 166.54449557 -53.54651451 164.12569618 C-53.52213921 160.73627556 -53.52308576 157.3477336 -53.5300293 153.95825195 C-53.51081421 152.46559311 -53.51081421 152.46559311 -53.49121094 150.94277954 C-53.54444049 143.79662494 -55.05240777 138.48596524 -59.7109375 132.9765625 C-60.26007813 132.53054687 -60.80921875 132.08453125 -61.375 131.625 C-62.19097656 130.93277344 -62.19097656 130.93277344 -63.0234375 130.2265625 C-68.4985372 126.82897099 -73.99862766 126.61512129 -80.25 126.625 C-81.08958252 126.62371094 -81.92916504 126.62242187 -82.79418945 126.62109375 C-89.15451217 126.72944888 -94.41976953 127.78670533 -100 131 Z M-28.5 134.4375 C-34.06821416 141.80950185 -34.15006994 149.81748959 -34.16113281 158.71801758 C-34.16609772 159.67979416 -34.17106262 160.64157074 -34.17617798 161.63249207 C-34.19074111 164.80317916 -34.19759151 167.97381625 -34.203125 171.14453125 C-34.20888085 173.35641989 -34.21463852 175.56830852 -34.22039795 177.78019714 C-34.230891 182.41442089 -34.2367449 187.04862738 -34.24023438 191.68286133 C-34.24571839 197.60752411 -34.26975181 203.53195701 -34.29820633 209.45654774 C-34.31687082 214.02488361 -34.32204032 218.59316449 -34.32357025 223.16153526 C-34.3265882 225.34511256 -34.33458762 227.52868909 -34.34775543 229.71222878 C-34.36489705 232.77292805 -34.36291589 235.83307043 -34.35644531 238.89379883 C-34.3656601 239.78708893 -34.37487488 240.68037903 -34.3843689 241.60073853 C-34.33580326 248.97055161 -32.90040832 255.12223884 -28.8125 261.3125 C-21.53783785 268.26384384 -13.33288057 269.28608803 -3.5546875 269.15234375 C4.93720573 268.64594645 10.76365236 266.38345435 16.75 260.125 C21.22795572 253.90561706 21.29753926 248.12293085 21.29052734 240.73120117 C21.29724457 239.71090317 21.30396179 238.69060516 21.31088257 237.63938904 C21.32984576 234.27386576 21.33378598 230.9085421 21.3359375 227.54296875 C21.34236669 225.19655781 21.34909515 222.85014767 21.35610962 220.5037384 C21.36807827 215.5870274 21.37179087 210.67038665 21.37060547 205.75366211 C21.37040233 199.46570857 21.39770132 193.17820726 21.43214989 186.89036083 C21.45443078 182.04407193 21.45844263 177.19789165 21.45738602 172.35155678 C21.45974029 170.03400426 21.46855396 167.71644867 21.48405075 165.39894676 C21.50373358 162.15130684 21.49786295 158.90463934 21.48583984 155.65698242 C21.50269836 154.23289063 21.50269836 154.23289063 21.51989746 152.7800293 C21.45141949 145.46936916 19.78185095 139.37313506 15.0703125 133.66015625 C14.42835938 133.13292969 13.78640625 132.60570312 13.125 132.0625 C12.48820312 131.51722656 11.85140625 130.97195312 11.1953125 130.41015625 C0.21781926 123.35877714 -19.621088 124.75525787 -28.5 134.4375 Z " fill="#8C6ADC" transform="translate(313,35)"/>
<path d="M0 0 C1.35834961 0.00773438 1.35834961 0.00773438 2.74414062 0.015625 C9.37702922 0.09476461 9.37702922 0.09476461 11.6875 1.25 C13.18683215 1.29475618 14.68800573 1.2889479 16.1875 1.25 C20.46527778 1.13888889 20.46527778 1.13888889 22.6875 2.25 C22.3575 3.57 22.0275 4.89 21.6875 6.25 C22.615625 6.806875 23.54375 7.36375 24.5 7.9375 C27.8798642 10.38955834 29.02411006 11.48035597 30.6875 15.25 C31.11030916 18.66907371 31.06639867 22.05940672 31.02807617 25.50048828 C31.02873329 27.04517288 31.02873329 27.04517288 31.02940369 28.62106323 C31.02731577 32.02100667 31.00397974 35.42045529 30.98046875 38.8203125 C30.97487162 41.1825229 30.97060207 43.54473678 30.96760559 45.9069519 C30.95615618 52.12340928 30.92669418 58.33965607 30.89349365 64.55603027 C30.86283262 70.88758507 30.84909876 77.21917363 30.83398438 83.55078125 C30.80324174 95.44706525 30.75588983 107.34321095 30.69587994 119.23938179 C30.68891883 120.90957569 30.6875 122.57979159 30.6875 124.25 C30.36004644 125.58478952 30.02602557 126.91797548 29.6875 128.25 C29.59210938 129.04277344 29.49671875 129.83554687 29.3984375 130.65234375 C28.5047132 137.39684455 28.5047132 137.39684455 26 140.01171875 C24.0625 141.375 24.0625 141.375 20.6875 143.25 C21.14386536 141.853522 21.60269488 140.4578492 22.0625 139.0625 C22.31773437 138.28519531 22.57296875 137.50789062 22.8359375 136.70703125 C23.6875 134.25 23.6875 134.25 24.7225647 132.25508118 C26.16538698 127.76172493 25.9822882 123.40343799 25.97802734 118.71166992 C25.98474457 117.65089737 25.99146179 116.59012482 25.99838257 115.49720764 C26.01737519 111.99158031 26.0212875 108.48614433 26.0234375 104.98046875 C26.02986477 102.54055198 26.03659308 100.10063598 26.04360962 97.66072083 C26.05558572 92.54552423 26.05929011 87.43039518 26.05810547 82.31518555 C26.05790232 75.76816043 26.08519955 69.22156957 26.11964989 62.67464733 C26.14191358 57.63452677 26.14594315 52.59451078 26.14488602 47.55434608 C26.14724295 45.14107073 26.15607163 42.72779253 26.17155075 40.31456566 C26.1911981 36.93490787 26.18537664 33.55618732 26.17333984 30.17651367 C26.19019836 28.68856796 26.19019836 28.68856796 26.20739746 27.17056274 C26.14620843 20.3920595 24.96140066 14.87284869 20.31097984 9.72676373 C14.33406416 4.33504768 8.01800187 3.90729051 0.375 3.9375 C-0.8305957 3.91333008 -0.8305957 3.91333008 -2.06054688 3.88867188 C-7.9659867 3.88392092 -12.83372675 5.0787003 -18.3125 7.25 C-17.99487305 5.35839844 -17.99487305 5.35839844 -17.3125 3.25 C-11.63849158 -0.122503 -6.47600343 -0.15071426 0 0 Z " fill="#8E6BC3" transform="translate(232.3125,158.75)"/>
<path d="M0 0 C0 7.17018323 -4.05522737 16.86524204 -8.9375 22.0625 C-9.618125 22.701875 -10.29875 23.34125 -11 24 C-13.47701681 26.76843056 -14.90089353 28.6968508 -16.0625 32.25 C-16.371875 33.1575 -16.68125 34.065 -17 35 C-18.485 35.495 -18.485 35.495 -20 36 C-20.144375 36.763125 -20.28875 37.52625 -20.4375 38.3125 C-21 41 -21 41 -22 44 C-22.66 44 -23.32 44 -24 44 C-24.03738281 44.56847656 -24.07476562 45.13695312 -24.11328125 45.72265625 C-24.56737442 51.0560251 -25.73037992 55.09762064 -28 60 C-28.96521494 63.11013702 -29.83759469 66.16732872 -30.4609375 69.36328125 C-31.02767765 72.1353798 -31.75717672 74.83262444 -32.5 77.5625 C-33.82726785 82.76898064 -34.4446899 87.7528078 -34.69140625 93.11328125 C-35 96 -35 96 -35.9934082 99.24121094 C-36.99321552 102.97466555 -37.31130164 106.17381136 -37.4140625 110.02734375 C-37.45273438 111.31318359 -37.49140625 112.59902344 -37.53125 113.92382812 C-37.56269499 115.26171418 -37.59394259 116.59960489 -37.625 117.9375 C-37.66324342 119.30275756 -37.7022987 120.66799264 -37.7421875 122.03320312 C-37.83609937 125.3553354 -37.92177787 128.67746741 -38 132 C-38.33 132 -38.66 132 -39 132 C-44.08041398 84.69193333 -30.29366118 40.06872815 -2 2 C-1.34 1.34 -0.68 0.68 0 0 Z " fill="#AC8CC8" transform="translate(105,108)"/>
<path d="M0 0 C1.41732422 0.00773438 1.41732422 0.00773438 2.86328125 0.015625 C9.78311395 0.09437132 9.78311395 0.09437132 13.25 1.25 C13.25 1.91 13.25 2.57 13.25 3.25 C13.91 3.25 14.57 3.25 15.25 3.25 C15.58 2.59 15.91 1.93 16.25 1.25 C16.25 1.91 16.25 2.57 16.25 3.25 C16.848125 3.311875 17.44625 3.37375 18.0625 3.4375 C21.10754676 4.56851737 21.69490515 6.49324095 23.25 9.25 C23.91 9.25 24.57 9.25 25.25 9.25 C26.51237731 11.77475462 26.34856404 13.56200466 26.3125 16.375 C26.30347656 17.28507812 26.29445313 18.19515625 26.28515625 19.1328125 C26.27355469 19.83148438 26.26195312 20.53015625 26.25 21.25 C24.25 18.25 24.25 18.25 22.5 14.875 C19.84738259 10.22800729 16.61384492 7.24365162 11.6015625 5.13671875 C2.45505682 2.71683904 -9.262674 2.80641005 -17.83203125 6.98046875 C-23.25393935 10.56930812 -25.9618952 15.50789112 -27.2868042 21.7988739 C-27.87843979 26.20696443 -27.90561085 30.52537306 -27.91113281 34.96801758 C-27.91609772 35.92979416 -27.92106262 36.89157074 -27.92617798 37.88249207 C-27.94074111 41.05317916 -27.94759151 44.22381625 -27.953125 47.39453125 C-27.95888085 49.60641989 -27.96463852 51.81830852 -27.97039795 54.03019714 C-27.980891 58.66442089 -27.9867449 63.29862738 -27.99023438 67.93286133 C-27.99571839 73.85752411 -28.01975181 79.78195701 -28.04820633 85.70654774 C-28.06687082 90.27488361 -28.07204032 94.84316449 -28.07357025 99.41153526 C-28.0765882 101.59511256 -28.08458762 103.77868909 -28.09775543 105.96222878 C-28.11489705 109.02292805 -28.11291589 112.08307043 -28.10644531 115.14379883 C-28.1156601 116.03708893 -28.12487488 116.93037903 -28.1343689 117.85073853 C-28.09957148 123.13123049 -27.30737697 127.41159151 -25.39371872 132.34357738 C-24.75 134.25 -24.75 134.25 -24.75 137.25 C-27.75 136.25 -27.75 136.25 -28.91883373 134.48748493 C-29.8437557 131.9976113 -30.01872058 130.10296038 -30.04866028 127.45024109 C-30.06415924 126.48723083 -30.0796582 125.52422058 -30.09562683 124.5320282 C-30.10250015 123.48207169 -30.10937347 122.43211517 -30.11645508 121.3503418 C-30.13131958 120.23934113 -30.14618408 119.12834045 -30.16149902 117.9836731 C-30.20773401 114.30555886 -30.23930512 110.62749708 -30.26953125 106.94921875 C-30.2958617 104.39337233 -30.32261614 101.83753024 -30.34977722 99.2816925 C-30.4042397 93.92098521 -30.45114211 88.56027846 -30.49291992 83.19946289 C-30.54132914 77.01336862 -30.60819033 70.82766693 -30.68408471 64.64185399 C-30.75643432 58.68111541 -30.81168815 52.72029964 -30.86032677 46.7593174 C-30.88305161 44.22795664 -30.91061742 41.69663451 -30.94312477 39.16538048 C-30.98688604 35.6228117 -31.0111482 32.08061664 -31.03051758 28.5378418 C-31.04751205 27.49395798 -31.06450653 26.45007416 -31.08201599 25.3745575 C-31.09053334 19.46364197 -30.39787921 15.52793302 -27.75 10.25 C-27.3445897 7.92810464 -26.98927006 5.59484656 -26.75 3.25 C-23.76758453 2.47678118 -20.77419525 1.83803797 -17.75 1.25 C-17.75 1.91 -17.75 2.57 -17.75 3.25 C-16.35007812 2.51523438 -16.35007812 2.51523438 -14.921875 1.765625 C-10.01898706 -0.33279129 -5.25340312 -0.11658037 0 0 Z " fill="#A3B2E4" transform="translate(307.75,158.75)"/>
<path d="M0 0 C1.35834961 0.00773438 1.35834961 0.00773438 2.74414062 0.015625 C9.37702922 0.09476461 9.37702922 0.09476461 11.6875 1.25 C13.18683215 1.29475618 14.68800573 1.2889479 16.1875 1.25 C20.46527778 1.13888889 20.46527778 1.13888889 22.6875 2.25 C22.3575 3.57 22.0275 4.89 21.6875 6.25 C22.6775 6.91 23.6675 7.57 24.6875 8.25 C25.875 11.375 25.875 11.375 26.6875 14.25 C27.3475 14.25 28.0075 14.25 28.6875 14.25 C28.3575 52.2 28.0275 90.15 27.6875 129.25 C27.3575 129.25 27.0275 129.25 26.6875 129.25 C26.68603344 128.69046379 26.68456688 128.13092758 26.68305588 127.55443573 C26.64594195 113.91542051 26.58661586 100.27665595 26.50359726 86.63784027 C26.46411623 80.04207881 26.43193056 73.446451 26.41650391 66.85058594 C26.40134184 60.48322652 26.36690323 54.11623449 26.31919098 47.7490387 C26.30437273 45.32185563 26.29645874 42.89462012 26.29561615 40.46739197 C26.29324621 37.06315098 26.26616206 33.65992503 26.23339844 30.25585938 C26.2384288 29.25604034 26.24345917 28.25622131 26.24864197 27.22610474 C26.14779388 20.43741849 24.97073481 14.88305764 20.31121445 9.72707367 C14.33437644 4.33503564 8.01811309 3.90729007 0.375 3.9375 C-0.8305957 3.91333008 -0.8305957 3.91333008 -2.06054688 3.88867188 C-7.9659867 3.88392092 -12.83372675 5.0787003 -18.3125 7.25 C-17.99487305 5.35839844 -17.99487305 5.35839844 -17.3125 3.25 C-11.63849158 -0.122503 -6.47600343 -0.15071426 0 0 Z " fill="#DFE0F2" transform="translate(232.3125,158.75)"/>
<path d="M0 0 C0.33 0 0.66 0 1 0 C2.22517308 5.66642551 2.09228867 11.23708518 2 17 C2.99 17.33 3.98 17.66 5 18 C4.67 19.32 4.34 20.64 4 22 C4.66 22 5.32 22 6 22 C6.04898438 23.18335938 6.09796875 24.36671875 6.1484375 25.5859375 C6.52735344 33.90798906 7.04854575 41.8794323 9 50 C9.52231938 52.52052584 10.04307257 55.0413766 10.5625 57.5625 C11.10469469 61.60016413 11.10469469 61.60016413 13 65 C13.23287008 66.68183948 13.41264166 68.3712416 13.5625 70.0625 C13.64628906 70.98160156 13.73007813 71.90070313 13.81640625 72.84765625 C13.87699219 73.55792969 13.93757813 74.26820313 14 75 C12 74 12 74 11.17797852 72.13671875 C10.29417988 69.42780708 9.41417332 66.7192359 8.5625 64 C8.24974121 63.01064453 7.93698242 62.02128906 7.61474609 61.00195312 C4.97848491 52.41440488 3.27653264 43.87681157 2 35 C1.83105225 34.08009277 1.66210449 33.16018555 1.48803711 32.21240234 C0.97083834 28.80804945 0.79018159 25.511577 0.68359375 22.0703125 C0.64169922 20.78125 0.59980469 19.4921875 0.55664062 18.1640625 C0.51683972 16.81771091 0.47712727 15.47135671 0.4375 14.125 C0.39424817 12.75519667 0.35063188 11.38540479 0.30664062 10.015625 C0.20084478 6.67717843 0.09875628 3.338661 0 0 Z " fill="#7495DF" transform="translate(64,223)"/>
<path d="M0 0 C2.33279502 2.82851396 3.56073251 5.1825197 4.5 8.71875 C4.74596924 9.64123535 4.99193848 10.5637207 5.24536133 11.51416016 C5.49439209 12.4994873 5.74342285 13.48481445 6 14.5 C6.39191528 16.03019775 6.39191528 16.03019775 6.79174805 17.59130859 C13.46967831 44.48221904 15.78981052 73.70517899 10 101 C9.67 101 9.34 101 9 101 C9.00333092 99.99188766 9.00333092 99.99188766 9.00672913 98.96340942 C9.02879822 91.98846975 9.04391343 85.01353993 9.05493164 78.03857422 C9.0599703 75.43310137 9.0668013 72.82763137 9.07543945 70.22216797 C9.08752544 66.48404236 9.09323288 62.74595403 9.09765625 59.0078125 C9.10281754 57.83695099 9.10797882 56.66608948 9.11329651 55.45974731 C9.11337204 54.37877777 9.11344757 53.29780823 9.11352539 52.18408203 C9.115746 51.22921906 9.11796661 50.27435608 9.12025452 49.29055786 C9.1514245 46.969761 9.1514245 46.969761 8 45 C7.79126718 42.22559288 7.62533379 39.46573236 7.5 36.6875 C7.18819214 29.79216991 7.18819214 29.79216991 6 23 C5.34 23 4.68 23 4 23 C3.52047335 20.29172996 3.04136769 17.58338656 2.5625 14.875 C2.42779297 14.11445313 2.29308594 13.35390625 2.15429688 12.5703125 C1.41440873 8.38362839 0.69026923 4.19522853 0 0 Z " fill="#5B97DC" transform="translate(453,161)"/>
<path d="M0 0 C0.99 0.33 1.98 0.66 3 1 C2.4071577 6.61938816 1.41341051 11.8792635 -0.125 17.3125 C-0.45105225 18.46721802 -0.45105225 18.46721802 -0.78369141 19.64526367 C-4.78690328 33.4556472 -9.67433432 46.5975812 -17 59 C-17.33 59 -17.66 59 -18 59 C-18.3152595 53.01006953 -17.68219822 49.36439644 -15 44 C-14.34 44 -13.68 44 -13 44 C-12.86722656 43.41992188 -12.73445313 42.83984375 -12.59765625 42.2421875 C-12.02731557 40.10247801 -11.28634684 38.16715327 -10.4375 36.125 C-9.09110373 32.63482714 -8.71718413 29.77087831 -9 26 C-8.01 25.67 -7.02 25.34 -6 25 C-2.85836302 17.06205603 -1.30518297 8.41499544 0 0 Z " fill="#8B74BE" transform="translate(459,263)"/>
<path d="M0 0 C1.42723004 2.85446008 0.49422631 4.3366952 -0.375 7.375 C-1.77745012 12.66115816 -2.44034122 17.65832288 -2.69140625 23.11328125 C-3 26 -3 26 -3.9934082 29.24121094 C-4.99321552 32.97466555 -5.31130164 36.17381136 -5.4140625 40.02734375 C-5.45273438 41.31318359 -5.49140625 42.59902344 -5.53125 43.92382812 C-5.56269499 45.26171418 -5.59394259 46.59960489 -5.625 47.9375 C-5.66324342 49.30275756 -5.7022987 50.66799264 -5.7421875 52.03320312 C-5.83609937 55.3553354 -5.92177787 58.67746741 -6 62 C-6.33 62 -6.66 62 -7 62 C-8.76310357 45.42887661 -9.78842348 28.1282809 -5 12 C-4.73703125 11.01386719 -4.4740625 10.02773437 -4.203125 9.01171875 C-2.35873288 2.35873288 -2.35873288 2.35873288 0 0 Z " fill="#8A96C6" transform="translate(73,178)"/>
<path d="M0 0 C-0.33 0.66 -0.66 1.32 -1 2 C-3.72265625 2.4140625 -3.72265625 2.4140625 -7.0625 2.625 C-8.16722656 2.69976562 -9.27195313 2.77453125 -10.41015625 2.8515625 C-11.69212891 2.92503906 -11.69212891 2.92503906 -13 3 C-13.33 3.99 -13.66 4.98 -14 6 C-18.05825195 9.46436142 -20.34871128 10.08717246 -25.57421875 9.7421875 C-30.17221149 10.23086306 -34.15449465 12.63891147 -38.2421875 14.6875 C-41 16 -41 16 -43 16 C-43.928125 16.5259375 -43.928125 16.5259375 -44.875 17.0625 C-47.44020686 18.19420891 -48.38832453 17.78131714 -51 17 C-11.48647649 -4.207095 -11.48647649 -4.207095 0 0 Z " fill="#AB98E1" transform="translate(221,36)"/>
<path d="M0 0 C0.33 0 0.66 0 1 0 C1 31.68 1 63.36 1 96 C1.66 96 2.32 96 3 96 C3 98.31 3 100.62 3 103 C2.34 103 1.68 103 1 103 C1 102.01 1 101.02 1 100 C0.34 99.67 -0.32 99.34 -1 99 C-1.02338499 89.04509865 -1.04104622 79.09020405 -1.05181217 69.13528061 C-1.05698468 64.51058721 -1.06397714 59.88591289 -1.07543945 55.26123047 C-1.08647211 50.78079293 -1.09231897 46.3003735 -1.09487724 41.8199234 C-1.09669543 40.12830572 -1.10024347 38.4366888 -1.10573006 36.74507904 C-1.14389512 24.46626087 -0.71357067 12.2579821 0 0 Z " fill="#7F69BD" transform="translate(203,192)"/>
<path d="M0 0 C2 1 2 1 2.75 3.125 C3.0678148 6.77987025 2.15126966 9.54619101 1 13 C0.01 13 -0.98 13 -2 13 C-2.99 13.33 -3.98 13.66 -5 14 C-5.309375 14.66 -5.61875 15.32 -5.9375 16 C-7 18 -7 18 -8.71118164 18.61450195 C-13.56665837 19.43229371 -18.52691569 19.18471464 -23.4375 19.1875 C-25.13616211 19.20586914 -25.13616211 19.20586914 -26.86914062 19.22460938 C-28.50979492 19.22750977 -28.50979492 19.22750977 -30.18359375 19.23046875 C-31.17931396 19.23457764 -32.17503418 19.23868652 -33.20092773 19.24291992 C-36.14904826 18.98706472 -38.32539077 18.23384727 -41 17 C-37.23699497 15.74566499 -34.93162806 16.43833885 -31 17 C-21.8232837 17.54605254 -13.36201224 16.99233555 -6 11 C-2.75942243 7.57939034 -1.26329349 4.52680167 0 0 Z " fill="#B298D4" transform="translate(333,286)"/>
<path d="M0 0 C0.33 0 0.66 0 1 0 C1.00586624 1.1325975 1.01173248 2.26519501 1.01777649 3.43211365 C1.07509567 14.12808542 1.14790534 24.82385568 1.23571491 35.51962185 C1.28036079 41.01786763 1.31962973 46.5160403 1.34643555 52.0144043 C1.37252609 57.32487542 1.41296933 62.63506433 1.46318626 67.94536018 C1.47981609 69.96700583 1.49135448 71.98870024 1.49761391 74.01040459 C1.50729728 76.85155398 1.53540704 79.69198765 1.56762695 82.53295898 C1.56619186 83.36086945 1.56475677 84.18877991 1.5632782 85.04177856 C1.64455825 90.14019211 2.52929514 94.30541252 4.35895061 99.07110691 C5 101 5 101 5 104 C2 103 2 103 0.82753181 101.20246506 C-0.04512723 98.87989446 -0.24678056 97.23153939 -0.24050903 94.76055908 C-0.24325836 93.92205917 -0.24600769 93.08355927 -0.24884033 92.21965027 C-0.24164978 91.30830826 -0.23445923 90.39696625 -0.22705078 89.45800781 C-0.22734283 88.49182022 -0.22763489 87.52563263 -0.22793579 86.53016663 C-0.22654285 83.33772795 -0.21098318 80.14552289 -0.1953125 76.953125 C-0.19158225 74.73923876 -0.18873533 72.52535088 -0.18673706 70.3114624 C-0.1791016 64.48516276 -0.15945376 58.65896287 -0.1373291 52.83270264 C-0.11686886 46.88718007 -0.10773496 40.94164138 -0.09765625 34.99609375 C-0.07620787 23.33068535 -0.04207288 11.66535097 0 0 Z " fill="#AF9CD1" transform="translate(278,192)"/>
<path d="M0 0 C-3.77701814 3.77701814 -9.81116684 4.26167421 -14.875 5.5625 C-16.05320312 5.87896484 -17.23140625 6.19542969 -18.4453125 6.52148438 C-25.79963219 8.4289098 -33.34701802 10.30787859 -41 10 C-41.99 9.34 -42.98 8.68 -44 8 C-37.13122288 6.2625353 -30.35173564 4.8458552 -23.3125 4 C-17.98618484 3.35205651 -13.17815731 2.28550218 -8.09765625 0.59765625 C-5.35752772 -0.18305076 -2.82819591 -0.22327862 0 0 Z " fill="#A985DE" transform="translate(333,414)"/>
<path d="M0 0 C0.495 0.99 0.495 0.99 1 2 C1.928125 2.1546875 1.928125 2.1546875 2.875 2.3125 C5.92601339 3.29959257 6.4721884 5.29160671 8 8 C8.66 8 9.32 8 10 8 C11.26237731 10.52475462 11.09856404 12.31200466 11.0625 15.125 C11.05347656 16.03507812 11.04445313 16.94515625 11.03515625 17.8828125 C11.02355469 18.58148438 11.01195312 19.28015625 11 20 C9 17 9 17 7.25 13.625 C4.59661599 8.97666431 1.36192969 5.99633022 -3.6484375 3.8828125 C-7.76281833 2.79907116 -11.51431065 2.65906659 -15.75 2.6875 C-16.93891846 2.68943359 -16.93891846 2.68943359 -18.15185547 2.69140625 C-24.13313001 2.78927943 -29.45065551 3.65756313 -35 6 C-32.07159577 2.60921616 -29.23152552 1.16634573 -24.72705078 0.83056641 C-22.00249314 0.76656158 -19.28753316 0.77671864 -16.5625 0.8125 C-15.63373047 0.81314453 -14.70496094 0.81378906 -13.74804688 0.81445312 C-9.05905429 0.84448938 -4.61025093 1.0379276 0 2 C0 1.34 0 0.68 0 0 Z " fill="#D5DCF5" transform="translate(323,160)"/>
<path d="M0 0 C0.69615417 0.04079681 1.39230835 0.08159363 2.10955811 0.12362671 C4.11148185 0.24479873 6.11242196 0.38189616 8.11328125 0.51953125 C9.28286377 0.59921143 10.45244629 0.6788916 11.6574707 0.76098633 C14.47211951 1.15718256 16.27626 1.73349524 18.6875 3.1875 C17.85734375 3.1153125 17.0271875 3.043125 16.171875 2.96875 C-1.34255512 1.64967158 -19.45017785 0.79985338 -36.828125 3.67578125 C-43.60830449 4.6715251 -50.47215128 4.86934425 -57.3125 5.1875 C-54.42763007 3.26425338 -53.30269989 2.84330474 -50.0234375 2.37109375 C-49.17410645 2.24694092 -48.32477539 2.12278809 -47.44970703 1.99487305 C-46.08241455 1.81178589 -46.08241455 1.81178589 -44.6875 1.625 C-43.26026611 1.43321167 -43.26026611 1.43321167 -41.80419922 1.23754883 C-38.97543791 0.87038348 -36.14508508 0.52377922 -33.3125 0.1875 C-32.60287109 0.10048828 -31.89324219 0.01347656 -31.16210938 -0.07617188 C-20.75799964 -1.26732122 -10.41865738 -0.6363461 0 0 Z " fill="#E0D2FD" transform="translate(279.3125,29.8125)"/>
<path d="M0 0 C3 4 3 4 3.8125 6.625 C4.8228132 9.29474973 4.8228132 9.29474973 7.875 10.1875 C8.90625 10.455625 9.9375 10.72375 11 11 C11.66 11.350625 12.32 11.70125 13 12.0625 C18.25659433 14.52652859 24.19861466 14.12503645 29.875 14.0625 C30.65875 14.05798828 31.4425 14.05347656 32.25 14.04882812 C34.16670014 14.03714093 36.08336048 14.01920908 38 14 C33.52898525 16.51470838 29.41199893 16.52913562 24.375 16.75 C23.47942383 16.79310303 22.58384766 16.83620605 21.66113281 16.88061523 C15.45939639 17.11129095 10.00387022 16.70109656 4 15 C3.34 13.02 2.68 11.04 2 9 C1.01 9.495 1.01 9.495 0 10 C0 6.7 0 3.4 0 0 Z " fill="#A88ECA" transform="translate(206,289)"/>
<path d="M0 0 C2.88763459 2.60818608 4.37620118 4.16111378 5 8 C5.08242194 10.46237767 5.10743299 12.92688768 5.09765625 15.390625 C5.0962413 16.09523865 5.09482635 16.79985229 5.09336853 17.52581787 C5.08778933 19.76725584 5.07524073 22.00859243 5.0625 24.25 C5.05748231 25.77343605 5.05291987 27.29687368 5.04882812 28.8203125 C5.03782674 32.54690772 5.02057646 36.27344396 5 40 C4.67 40 4.34 40 4 40 C3.67 46.6 3.34 53.2 3 60 C2.67 60 2.34 60 2 60 C1.97468516 52.64934015 1.95714798 45.2986915 1.94506836 37.94799805 C1.94003359 35.44636617 1.93320539 32.94473724 1.92456055 30.44311523 C1.91245762 26.85139234 1.90676318 23.25970828 1.90234375 19.66796875 C1.89460182 17.98503975 1.89460182 17.98503975 1.88670349 16.26811218 C1.88662796 15.22725967 1.88655243 14.18640717 1.88647461 13.11401367 C1.884254 12.19690109 1.88203339 11.27978851 1.87974548 10.33488464 C2 8 2 8 3 5 C1.68 4.67 0.36 4.34 -1 4 C-0.67 2.68 -0.34 1.36 0 0 Z " fill="#9B9FD9" transform="translate(258,168)"/>
<path d="M0 0 C1.13659586 3.40978759 0.74852734 4.88170389 -0.71875 8.1015625 C-2.83027207 11.2302202 -5.74907646 13.17457852 -8.78515625 15.359375 C-10.6826005 16.76488926 -12.21923939 18.14772682 -13.8125 19.875 C-15.97784271 21.97847578 -17.04702976 22.6718922 -20 23 C-18.44182816 19.35015184 -16.18875601 16.8314046 -13.5 13.9375 C-11.09463269 11.34079665 -8.96595796 8.94893694 -7 6 C-6.34 6 -5.68 6 -5 6 C-5 5.34 -5 4.68 -5 4 C-4.34 4 -3.68 4 -3 4 C-3 3.34 -3 2.68 -3 2 C-2.01 1.34 -1.02 0.68 0 0 Z " fill="#AC91D7" transform="translate(126,85)"/>
<path d="M0 0 C0.33 0 0.66 0 1 0 C1.33 11.88 1.66 23.76 2 36 C1.67 36 1.34 36 1 36 C0.67 53.16 0.34 70.32 0 88 C-0.33 88 -0.66 88 -1 88 C-1.21446412 25.68139427 -1.21446412 25.68139427 0 0 Z " fill="#9886C9" transform="translate(261,197)"/>
<path d="M0 0 C1 2 1 2 0.546875 3.84765625 C0.28390625 4.57855469 0.0209375 5.30945313 -0.25 6.0625 C-1.37559802 9.23556592 -2.43927278 12.40971563 -3.4375 15.625 C-4.56343608 19.05586281 -6.11496943 21.81693126 -8.015625 24.89453125 C-10.22168021 29.61303823 -10.99090016 34.91627732 -12 40 C-12.33 40 -12.66 40 -13 40 C-12.42138764 33.52474252 -11.2759914 27.51448461 -9.5625 21.25 C-9.34529297 20.42628906 -9.12808594 19.60257813 -8.90429688 18.75390625 C-7.82346011 14.72267724 -6.67544641 10.83404481 -5 7 C-4.34 7 -3.68 7 -3 7 C-2.690625 6.030625 -2.38125 5.06125 -2.0625 4.0625 C-1 1 -1 1 0 0 Z " fill="#9E95C2" transform="translate(80,155)"/>
<path d="M0 0 C0.66 0 1.32 0 2 0 C2 0.99 2 1.98 2 3 C4.31 3.33 6.62 3.66 9 4 C9 3.34 9 2.68 9 2 C8.34 1.67 7.68 1.34 7 1 C10.3 1 13.6 1 17 1 C17.33 1.66 17.66 2.32 18 3 C21.17890804 5.00153469 24.31253672 5.4971641 28 6 C28 6.33 28 6.66 28 7 C16.57874036 7.75030173 6.08459248 5.49756211 -5 3 C-4.360625 2.690625 -3.72125 2.38125 -3.0625 2.0625 C-1.06389179 1.1654837 -1.06389179 1.1654837 0 0 Z " fill="#9B74D9" transform="translate(222,418)"/>
<path d="M0 0 C0 6.63579182 -3.60336608 14.38817004 -7 20 C-7.99 20.33 -8.98 20.66 -10 21 C-10.66 20.34 -11.32 19.68 -12 19 C-9.51712471 12.01691325 -5.2593038 5.2593038 0 0 Z " fill="#9573CF" transform="translate(105,108)"/>
<path d="M0 0 C0.99 0 1.98 0 3 0 C3 0.99 3 1.98 3 3 C-18.53909734 15.0058869 -18.53909734 15.0058869 -30 17 C-29.505 15.515 -29.505 15.515 -29 14 C-26.234375 12.6484375 -26.234375 12.6484375 -22.75 11.375 C-21.61046875 10.94960938 -20.4709375 10.52421875 -19.296875 10.0859375 C-16.51649283 9.17012441 -13.86995007 8.53053654 -11 8 C-7.82547916 6.74202164 -7.82547916 6.74202164 -6 4 C-4.35178756 2.96986723 -2.68496298 1.96885372 -1 1 C-0.67 0.67 -0.34 0.34 0 0 Z " fill="#B292E1" transform="translate(363,397)"/>
<path d="M0 0 C2.43464705 2.92233848 3.59625695 5.35997796 4.53515625 9.03515625 C4.78716797 10.01033203 5.03917969 10.98550781 5.29882812 11.99023438 C5.55083984 13.00408203 5.80285156 14.01792969 6.0625 15.0625 C6.31837891 16.04927734 6.57425781 17.03605469 6.83789062 18.05273438 C11.42849147 36.07290786 11.42849147 36.07290786 11 44 C8.76405409 40.64608114 8.47616967 38.58127974 7.9375 34.625 C7.39432919 30.71955696 6.81646938 26.85835972 6 23 C5.34 23 4.68 23 4 23 C3.52047335 20.29172996 3.04136769 17.58338656 2.5625 14.875 C2.42779297 14.11445313 2.29308594 13.35390625 2.15429688 12.5703125 C1.41440873 8.38362839 0.69026923 4.19522853 0 0 Z " fill="#687FEC" transform="translate(453,161)"/>
<path d="M0 0 C1.32 0.33 2.64 0.66 4 1 C2.76302083 2.39973958 1.52604167 3.79947917 0.2890625 5.19921875 C-2.812411 9.53188325 -3.44466863 14.11282449 -4.125 19.3125 C-4.29257812 20.56675781 -4.46015625 21.82101563 -4.6328125 23.11328125 C-4.75398438 24.06589844 -4.87515625 25.01851562 -5 26 C-5.33 26 -5.66 26 -6 26 C-6.25112548 23.47966841 -6.47626233 20.96123432 -6.6875 18.4375 C-6.79674805 17.38079102 -6.79674805 17.38079102 -6.90820312 16.30273438 C-7.32264181 11.01254645 -6.41591833 7.72625668 -4 3 C-3.01 3 -2.02 3 -1 3 C-0.67 2.01 -0.34 1.02 0 0 Z " fill="#B8C3E8" transform="translate(284,166)"/>
<path d="M0 0 C1.34068332 0.09710438 2.68054585 0.20598535 4.01953125 0.32421875 C5.47522873 0.4379065 6.93095876 0.55117799 8.38671875 0.6640625 C9.12760742 0.7244873 9.86849609 0.78491211 10.63183594 0.84716797 C12.7012532 1.00193797 14.76672594 1.11292221 16.83984375 1.203125 C24.54713476 1.5750374 31.49622118 2.58678361 38.83203125 5.01171875 C35.42064122 6.10823698 32.62547544 5.95387348 29.08203125 5.57421875 C28.0971875 5.47238281 27.11234375 5.37054688 26.09765625 5.265625 C24.97617187 5.13994141 24.97617187 5.13994141 23.83203125 5.01171875 C23.83203125 4.35171875 23.83203125 3.69171875 23.83203125 3.01171875 C22.18203125 3.01171875 20.53203125 3.01171875 18.83203125 3.01171875 C18.50203125 3.67171875 18.17203125 4.33171875 17.83203125 5.01171875 C16.85105469 4.69460937 15.87007813 4.3775 14.859375 4.05078125 C10.71276343 2.86603509 6.68663988 2.57521025 2.39453125 2.38671875 C1.2972168 2.32871094 1.2972168 2.32871094 0.17773438 2.26953125 C-1.60380407 2.17637891 -3.38584997 2.09301589 -5.16796875 2.01171875 C-3.16796875 0.01171875 -3.16796875 0.01171875 0 0 Z " fill="#9380D7" transform="translate(277.16796875,30.98828125)"/>
<path d="M0 0 C1.5778125 0.73669922 1.5778125 0.73669922 3.1875 1.48828125 C9.02526909 3.67744466 14.84717805 3.32493417 21 3.1875 C22.73443359 3.16719727 22.73443359 3.16719727 24.50390625 3.14648438 C27.33643004 3.11137044 30.16796307 3.06219 33 3 C32.34 3.99 31.68 4.98 31 6 C27.96590176 6.50367237 25.1798959 6.79974452 22.125 6.9375 C20.84629028 7.00312134 20.84629028 7.00312134 19.54174805 7.07006836 C12.30534081 7.2894777 6.60973989 6.07399081 0 3 C0 2.01 0 1.02 0 0 Z " fill="#7755A3" transform="translate(289,301)"/>
<path d="M0 0 C0 0.66 0 1.32 0 2 C-0.69867188 2.27714844 -1.39734375 2.55429687 -2.1171875 2.83984375 C-3.02726562 3.20207031 -3.93734375 3.56429688 -4.875 3.9375 C-5.77992188 4.29714844 -6.68484375 4.65679687 -7.6171875 5.02734375 C-9.96137667 5.94901262 -9.96137667 5.94901262 -12 7 C-14.84665632 7.15043306 -17.65252118 7.23129735 -20.5 7.25 C-21.28503906 7.270625 -22.07007813 7.29125 -22.87890625 7.3125 C-25.15625 7.328125 -25.15625 7.328125 -29 7 C-29.66 6.01 -30.32 5.02 -31 4 C-29.09927734 3.94392578 -29.09927734 3.94392578 -27.16015625 3.88671875 C-25.46091069 3.82100207 -23.7616932 3.75455677 -22.0625 3.6875 C-21.23169922 3.66494141 -20.40089844 3.64238281 -19.54492188 3.61914062 C-14.26982752 3.39335838 -9.84377202 2.52538377 -4.90795898 0.63208008 C-3 0 -3 0 0 0 Z " fill="#6F499D" transform="translate(252,301)"/>
<path d="M0 0 C3.3 0 6.6 0 10 0 C10 0.66 10 1.32 10 2 C10.78375 2.4125 11.5675 2.825 12.375 3.25 C15.6733333 5.44888887 16.07871568 7.23110958 17 11 C17.66 11 18.32 11 19 11 C18.67 12.65 18.34 14.3 18 16 C17.34 16 16.68 16 16 16 C15.78085937 15.48050781 15.56171875 14.96101562 15.3359375 14.42578125 C12.4155341 8.00326809 9.40189766 4.3229602 2.625 1.6875 C1.75875 1.460625 0.8925 1.23375 0 1 C0 0.67 0 0.34 0 0 Z " fill="#C0C7EB" transform="translate(242,162)"/>
<path d="M0 0 C4.12751449 0.60698743 7.3321148 2.03810791 11 4 C11 4.66 11 5.32 11 6 C14.62197194 7.49140021 18.27566618 8.7874262 22 10 C22 10.66 22 11.32 22 12 C23.98 12 25.96 12 28 12 C28 12.99 28 13.98 28 15 C29.32 15.66 30.64 16.32 32 17 C25.85906092 16.03898426 20.88274833 13.05395453 15.4375 10.1875 C14.39658203 9.65318359 13.35566406 9.11886719 12.28320312 8.56835938 C11.28095703 8.04435547 10.27871094 7.52035156 9.24609375 6.98046875 C8.33529053 6.50504639 7.4244873 6.02962402 6.48608398 5.53979492 C3.92314115 3.95239627 2.03737453 2.20990735 0 0 Z " fill="#B28EE9" transform="translate(154,393)"/>
<path d="M0 0 C0.66 0 1.32 0 2 0 C2 0.99 2 1.98 2 3 C1.34 3 0.68 3 0 3 C-0.433125 3.86625 -0.433125 3.86625 -0.875 4.75 C-1.91666667 6.83333333 -2.95833333 8.91666667 -4 11 C-4.66 11 -5.32 11 -6 11 C-6.33 16.28 -6.66 21.56 -7 27 C-7.33 27 -7.66 27 -8 27 C-8.93657734 19.6992104 -9.54703496 13.60920108 -6.69140625 6.70703125 C-5.87486343 4.99800332 -5.87486343 4.99800332 -6 3 C-4.68 2.34 -3.36 1.68 -2 1 C-2 1.99 -2 2.98 -2 4 C-1.34 2.68 -0.68 1.36 0 0 Z " fill="#8A8BCF" transform="translate(211,165)"/>
<path d="M0 0 C-2.20478446 1.92088071 -4.41362186 3.83673521 -6.625 5.75 C-7.24246094 6.28882813 -7.85992187 6.82765625 -8.49609375 7.3828125 C-18.47942073 16 -18.47942073 16 -22 16 C-22 14.68 -22 13.36 -22 12 C-18.535 11.505 -18.535 11.505 -15 11 C-14.67 9.35 -14.34 7.7 -14 6 C-12.68 6.33 -11.36 6.66 -10 7 C-9.87625 6.38125 -9.7525 5.7625 -9.625 5.125 C-9 3 -9 3 -7 1 C-2.38461538 -1.19230769 -2.38461538 -1.19230769 0 0 Z " fill="#B28CE3" transform="translate(399,376)"/>
<path d="M0 0 C0.33 0 0.66 0 1 0 C1.05479286 1.8538252 1.09314594 3.7081388 1.125 5.5625 C1.14820312 6.59503906 1.17140625 7.62757813 1.1953125 8.69140625 C1 12 1 12 0.01367188 15.26757812 C-0.99826214 18.99360104 -1.31140845 22.17781693 -1.4140625 26.02734375 C-1.45273438 27.31318359 -1.49140625 28.59902344 -1.53125 29.92382812 C-1.56269499 31.26171418 -1.59394259 32.59960489 -1.625 33.9375 C-1.66324342 35.30275756 -1.7022987 36.66799264 -1.7421875 38.03320312 C-1.83609937 41.3553354 -1.92177787 44.67746741 -2 48 C-2.33 48 -2.66 48 -3 48 C-3.04955872 43.10702988 -3.0857946 38.21420695 -3.10986328 33.32104492 C-3.11990057 31.65760756 -3.13353331 29.99418775 -3.15087891 28.33081055 C-3.17522749 25.93533995 -3.18650588 23.54010332 -3.1953125 21.14453125 C-3.20563507 20.4047554 -3.21595764 19.66497955 -3.22659302 18.90278625 C-3.22747989 14.79111812 -2.76606873 11.71248745 -1 8 C-0.56111075 5.79745973 -0.56111075 5.79745973 -0.375 3.6875 C-0.25125 2.470625 -0.1275 1.25375 0 0 Z " fill="#8384CF" transform="translate(69,192)"/>
<path d="M0 0 C0.66 0 1.32 0 2 0 C2.50512244 1.60256108 3.00391627 3.20711792 3.5 4.8125 C3.7784375 5.70582031 4.056875 6.59914063 4.34375 7.51953125 C5 10 5 10 5 13 C5.66 13 6.32 13 7 13 C9.08386889 18.27913453 9.57910004 23.39538469 10 29 C8 28 8 28 7.14624023 25.9621582 C6.86981689 25.08390381 6.59339355 24.20564941 6.30859375 23.30078125 C6.00373047 22.33849609 5.69886719 21.37621094 5.38476562 20.38476562 C5.07216797 19.37091797 4.75957031 18.35707031 4.4375 17.3125 C4.12103516 16.31798828 3.80457031 15.32347656 3.47851562 14.29882812 C1.99221606 9.55592313 0.61561169 4.95019262 0 0 Z " fill="#798AEA" transform="translate(68,269)"/>
<path d="M0 0 C5.11214238 0.59520416 9.80663454 1.72013543 14.6875 3.375 C15.33783203 3.58382812 15.98816406 3.79265625 16.65820312 4.0078125 C20.25144823 5.20922371 23.12742242 6.51285688 26 9 C23 10 23 10 20 9 C20 8.34 20 7.68 20 7 C19.20335937 6.87882812 18.40671875 6.75765625 17.5859375 6.6328125 C7.06151142 4.96836555 7.06151142 4.96836555 2 3 C2 2.34 2 1.68 2 1 C1.34 0.67 0.68 0.34 0 0 Z " fill="#B09CE4" transform="translate(316,37)"/>
<path d="M0 0 C0.69738281 0.05220703 1.39476562 0.10441406 2.11328125 0.15820312 C3.82596203 0.28724072 5.53805066 0.42409614 7.25 0.5625 C7.25 0.8925 7.25 1.2225 7.25 1.5625 C-2.01344942 2.53099123 -11.19321619 2.68440023 -20.5 2.625 C-21.89062337 2.61996857 -23.28124852 2.6154086 -24.671875 2.61132812 C-28.03129705 2.59966347 -31.39062419 2.58329614 -34.75 2.5625 C-34.75 2.2325 -34.75 1.9025 -34.75 1.5625 C-34.07420898 1.53744385 -33.39841797 1.5123877 -32.70214844 1.48657227 C-29.6345832 1.37039258 -26.56730842 1.24776563 -23.5 1.125 C-22.43652344 1.08568359 -21.37304688 1.04636719 -20.27734375 1.00585938 C-18.74013672 0.94301758 -18.74013672 0.94301758 -17.171875 0.87890625 C-15.75793457 0.82391968 -15.75793457 0.82391968 -14.31542969 0.76782227 C-11.80490453 0.63762239 -11.80490453 0.63762239 -9.640625 0.03515625 C-6.45644741 -0.76088815 -3.23866886 -0.26631776 0 0 Z " fill="#B594E7" transform="translate(284.75,423.4375)"/>
<path d="M0 0 C1.15725076 3.47175227 0.64797698 5.00160736 -0.83203125 8.28125 C-2.90592205 11.33312944 -5.71123745 12.44869691 -9 14 C-8.34 11.36 -7.68 8.72 -7 6 C-6.34 6 -5.68 6 -5 6 C-5 5.34 -5 4.68 -5 4 C-4.34 4 -3.68 4 -3 4 C-3 3.34 -3 2.68 -3 2 C-2.01 1.34 -1.02 0.68 0 0 Z " fill="#9270D5" transform="translate(126,85)"/>
<path d="M0 0 C3.8224465 0.53884708 5.23524018 2.05227864 7.625 5 C9.94555299 7.95572315 9.94555299 7.95572315 13 10 C13 10.66 13 11.32 13 12 C13.99 12 14.98 12 16 12 C17.70779973 13.62449243 19.37550757 15.29220027 21 17 C21.66 17.33 22.32 17.66 23 18 C23 18.66 23 19.32 23 20 C14.08368576 15.93971045 6.50056482 8.17574426 0 1 C0 0.67 0 0.34 0 0 Z " fill="#B37FEB" transform="translate(119,364)"/>
<path d="M0 0 C0.12036664 5.77759884 -0.1679418 11.27959989 -1 17 C-1.66 16.67 -2.32 16.34 -3 16 C-4.24024621 11.03901518 -4.10151176 6.07558808 -4 1 C-2 0 -2 0 0 0 Z " fill="#7366CE" transform="translate(463,247)"/>
<path d="M0 0 C3.63 2.31 7.26 4.62 11 7 C7.73209435 9.17860377 5.91954654 10 2 10 C1.01 9.67 0.02 9.34 -1 9 C-0.67 8.34 -0.34 7.68 0 7 C0.66 7 1.32 7 2 7 C1.34 4.69 0.68 2.38 0 0 Z " fill="#8A65C0" transform="translate(281,294)"/>
<path d="M0 0 C0 0.33 0 0.66 0 1 C-10.66330796 2.59872012 -21.23299038 3.49920885 -32 4 C-23.09396845 -1.93735436 -10.2733755 -0.20343318 0 0 Z " fill="#C3B4EC" transform="translate(254,31)"/>
<path d="M0 0 C-0.99 0.495 -0.99 0.495 -2 1 C-2 1.66 -2 2.32 -2 3 C-3.93596892 3.22211116 -5.87389328 3.42722992 -7.8125 3.625 C-9.43091797 3.79902344 -9.43091797 3.79902344 -11.08203125 3.9765625 C-14 4 -14 4 -17 2 C-11.21642935 -0.01167675 -6.09781001 -0.22084624 0 0 Z " fill="#A17BD7" transform="translate(306,420)"/>
<path d="M0 0 C0.99 0.495 0.99 0.495 2 1 C1.67 2.32 1.34 3.64 1 5 C1.66 5 2.32 5 3 5 C3.33 9.29 3.66 13.58 4 18 C3.34 18.33 2.68 18.66 2 19 C-0.30844801 12.65176798 -0.19818283 6.70518586 0 0 Z " fill="#907CDA" transform="translate(67,240)"/>
<path d="M0 0 C0.66 0.33 1.32 0.66 2 1 C0.27823503 4.74737082 -0.78128461 5.89256086 -4.5625 7.75 C-6.2640625 8.36875 -6.2640625 8.36875 -8 9 C-8.99 9.495 -8.99 9.495 -10 10 C-10.66 9.34 -11.32 8.68 -12 8 C-8.04 5.36 -4.08 2.72 0 0 Z " fill="#A58BD6" transform="translate(161,58)"/>
<path d="M0 0 C0.99 0.33 1.98 0.66 3 1 C2.40984815 6.50808397 1.43336231 11.64878069 0 17 C-0.33 17 -0.66 17 -1 17 C-1.18451025 5.47835991 -1.18451025 5.47835991 0 0 Z " fill="#7E7DC8" transform="translate(459,263)"/>
<path d="M0 0 C3.88185804 2.85530714 6.54737608 5.8132134 9.3125 9.75 C10.00988281 10.73484375 10.70726562 11.7196875 11.42578125 12.734375 C11.94527344 13.48203125 12.46476562 14.2296875 13 15 C12.01 15.33 11.02 15.66 10 16 C6 11.375 6 11.375 6 8 C5.01 7.67 4.02 7.34 3 7 C0 2.66666667 0 2.66666667 0 0 Z " fill="#AA5DF5" transform="translate(421,104)"/>
<path d="M0 0 C0.99 0 1.98 0 3 0 C3 0.99 3 1.98 3 3 C0.56876731 4.36663387 -1.86886163 5.7183867 -4.3125 7.0625 C-5.00279297 7.45244141 -5.69308594 7.84238281 -6.40429688 8.24414062 C-8.22925688 9.24037483 -10.11273877 10.12752842 -12 11 C-12.99 10.67 -13.98 10.34 -15 10 C-14.43410156 9.73445313 -13.86820312 9.46890625 -13.28515625 9.1953125 C-12.55167969 8.84210938 -11.81820313 8.48890625 -11.0625 8.125 C-10.33160156 7.77695312 -9.60070312 7.42890625 -8.84765625 7.0703125 C-6.83667541 6.1315023 -6.83667541 6.1315023 -6 4 C-4.35178756 2.96986723 -2.68496298 1.96885372 -1 1 C-0.67 0.67 -0.34 0.34 0 0 Z " fill="#B395E2" transform="translate(363,397)"/>
<path d="M0 0 C0.33 0 0.66 0 1 0 C0.67 2.97 0.34 5.94 0 9 C-0.66 9 -1.32 9 -2 9 C-2.103125 9.53625 -2.20625 10.0725 -2.3125 10.625 C-3.18092697 13.62502044 -4.55620296 16.2379535 -6 19 C-7.12642186 15.62073443 -6.96344705 15.27071722 -5.56640625 12.20703125 C-5.0878418 11.1387207 -5.0878418 11.1387207 -4.59960938 10.04882812 C-4.25736328 9.31083984 -3.91511719 8.57285156 -3.5625 7.8125 C-3.22412109 7.06291016 -2.88574219 6.31332031 -2.53710938 5.54101562 C-1.7000589 3.69007302 -0.85114596 1.84450334 0 0 Z " fill="#B49BC4" transform="translate(83,143)"/>
<path d="M0 0 C3 4 3 4 3.8125 6.625 C4.83220364 9.32965381 4.83220364 9.32965381 8.0625 10.1875 C9.031875 10.455625 10.00125 10.72375 11 11 C11.33 11.66 11.66 12.32 12 13 C11.07767578 12.67515625 11.07767578 12.67515625 10.13671875 12.34375 C9.32847656 12.0653125 8.52023438 11.786875 7.6875 11.5 C6.88699219 11.2215625 6.08648437 10.943125 5.26171875 10.65625 C2.91230578 9.86066893 2.91230578 9.86066893 0 10 C0 6.7 0 3.4 0 0 Z " fill="#AF96CE" transform="translate(206,289)"/>
<path d="M0 0 C0.66 0.33 1.32 0.66 2 1 C1.67 1.99 1.34 2.98 1 4 C-1.0625 4.6875 -1.0625 4.6875 -3 5 C-3 5.99 -3 6.98 -3 8 C-6.08558124 9.02852708 -7.77356651 9 -11 9 C-7.37 6.03 -3.74 3.06 0 0 Z M-10 11 C-8 12 -8 12 -8 12 Z " fill="#A78DE0" transform="translate(147,67)"/>
<path d="M0 0 C0 0.66 0 1.32 0 2 C-1.65 2.33 -3.3 2.66 -5 3 C-5 2.34 -5 1.68 -5 1 C-3 0 -3 0 0 0 Z M-9 2 C-7.68 2.33 -6.36 2.66 -5 3 C-5.50603992 5.16874252 -5.99983813 6.99967627 -7 9 C-7.66 9 -8.32 9 -9 9 C-9 6.69 -9 4.38 -9 2 Z " fill="#97AEF4" transform="translate(290,160)"/>
<path d="M0 0 C5.26170694 1.41167747 8.72171358 3.74850232 13 7 C12.34 7.66 11.68 8.32 11 9 C8.5 7.625 8.5 7.625 6 6 C6 5.34 6 4.68 6 4 C4.35 3.67 2.7 3.34 1 3 C0.67 2.01 0.34 1.02 0 0 Z " fill="#B39FE5" transform="translate(363,56)"/>
<path d="M0 0 C-0.99 1.485 -0.99 1.485 -2 3 C-4.06298828 3.2487793 -4.06298828 3.2487793 -6.5703125 3.07421875 C-7.46621094 3.01943359 -8.36210937 2.96464844 -9.28515625 2.90820312 C-10.22230469 2.83537109 -11.15945313 2.76253906 -12.125 2.6875 C-13.06988281 2.62626953 -14.01476562 2.56503906 -14.98828125 2.50195312 C-17.32681186 2.34841324 -19.66342389 2.18053924 -22 2 C-22 1.67 -22 1.34 -22 1 C-19.45847098 0.83096719 -16.91681012 0.66470573 -14.375 0.5 C-13.30572266 0.42845703 -13.30572266 0.42845703 -12.21484375 0.35546875 C-8.13492439 0.09345558 -4.09108781 -0.05162256 0 0 Z " fill="#71509A" transform="translate(322,304)"/>
<path d="M0 0 C1.32 0.66 2.64 1.32 4 2 C1.36 4.97 -1.28 7.94 -4 11 C-4 8.37886292 -3.68707555 6.49064888 -3 4 C-2.34 4 -1.68 4 -1 4 C-0.67 2.68 -0.34 1.36 0 0 Z " fill="#B086DD" transform="translate(412,357)"/>
<path d="M0 0 C0.66 0 1.32 0 2 0 C0.37621488 4.72373854 -2.10993018 8.94181834 -5 13 C-5.33 13 -5.66 13 -6 13 C-6 11.35 -6 9.7 -6 8 C-5.01 7.67 -4.02 7.34 -3 7 C-3 6.01 -3 5.02 -3 4 C-2.34 4 -1.68 4 -1 4 C-0.67 2.68 -0.34 1.36 0 0 Z " fill="#9A7FC5" transform="translate(438,324)"/>
<path d="M0 0 C0 3.54592018 -0.51924867 5.76926982 -2 9 C-5.125 10.875 -5.125 10.875 -8 12 C-6.59023295 8.96147295 -4.91129772 6.4060405 -2.875 3.75 C-2.06675781 2.69039063 -2.06675781 2.69039063 -1.2421875 1.609375 C-0.83226563 1.07828125 -0.42234375 0.5471875 0 0 Z " fill="#BF9ED9" transform="translate(105,108)"/>
<path d="M0 0 C5.852795 0.51482919 11.3297637 1.45357192 17 3 C13.58860997 4.09651823 10.79344419 3.94215473 7.25 3.5625 C5.77273438 3.40974609 5.77273438 3.40974609 4.265625 3.25390625 C3.51796875 3.17011719 2.7703125 3.08632813 2 3 C2 2.34 2 1.68 2 1 C1.34 0.67 0.68 0.34 0 0 Z " fill="#C2B5F0" transform="translate(299,33)"/>
<path d="M0 0 C0.66 0 1.32 0 2 0 C2 0.99 2 1.98 2 3 C1.34 3 0.68 3 0 3 C-0.4021875 3.86625 -0.4021875 3.86625 -0.8125 4.75 C-2.01719859 7.0325868 -3.40798115 8.9737942 -5 11 C-4.88637738 9.5199159 -4.75877092 8.04089926 -4.625 6.5625 C-4.55539063 5.73878906 -4.48578125 4.91507813 -4.4140625 4.06640625 C-4.27742187 3.38449219 -4.14078125 2.70257813 -4 2 C-3.34 1.67 -2.68 1.34 -2 1 C-2 1.99 -2 2.98 -2 4 C-1.34 2.68 -0.68 1.36 0 0 Z " fill="#B5B6DF" transform="translate(211,165)"/>
<path d="M0 0 C4.85963179 0.60745397 8.7405518 2.72758967 13 5 C12.67 5.66 12.34 6.32 12 7 C10.68 6.67 9.36 6.34 8 6 C8 5.34 8 4.68 8 4 C6.35 4 4.7 4 3 4 C3 3.01 3 2.02 3 1 C2.01 0.67 1.02 0.34 0 0 Z " fill="#BBACEB" transform="translate(347,48)"/>
<path d="M0 0 C1.99788438 0.34578768 3.99759451 0.68143549 6 1 C6 1.33 6 1.66 6 2 C3.91695462 2.05418326 1.83350232 2.09287551 -0.25 2.125 C-1.99023438 2.15980469 -1.99023438 2.15980469 -3.765625 2.1953125 C-6.82786046 2.0103949 -8.44202751 1.60823023 -11 0 C-3.84105131 -1.23904881 -3.84105131 -1.23904881 0 0 Z " fill="#B294E1" transform="translate(244,423)"/>
<path d="M0 0 C-1.28627711 1.17260611 -2.57919783 2.3379283 -3.875 3.5 C-4.59429687 4.1496875 -5.31359375 4.799375 -6.0546875 5.46875 C-8 7 -8 7 -10 7 C-9.42655063 4.13275314 -9.1385485 3.1385485 -7 1 C-2.38461538 -1.19230769 -2.38461538 -1.19230769 0 0 Z " fill="#A781DF" transform="translate(399,376)"/>
<path d="M0 0 C3 3.75 3 3.75 3 6 C3.66 6 4.32 6 5 6 C4.67 7.65 4.34 9.3 4 11 C3.34 11 2.68 11 2 11 C-1.07692308 4.6 -1.07692308 4.6 -0.6875 1.5625 C-0.460625 1.046875 -0.23375 0.53125 0 0 Z " fill="#B4BEE4" transform="translate(256,167)"/>
<path d="M0 0 C0 0.99 0 1.98 0 3 C2.64 3.33 5.28 3.66 8 4 C8 4.33 8 4.66 8 5 C6.24929483 4.88529863 4.49942464 4.75780972 2.75 4.625 C1.77546875 4.55539062 0.8009375 4.48578125 -0.203125 4.4140625 C-2.89633189 4.01534751 -4.66963279 3.36492937 -7 2 C-2.25 0 -2.25 0 0 0 Z " fill="#B190E2" transform="translate(224,418)"/>
<path d="M0 0 C0.33 0.99 0.66 1.98 1 3 C-1.68841859 5.25245881 -3.64641875 6.88213958 -7 8 C-5.98823563 4.59679258 -5.35156418 3.24274669 -2.375 1.1875 C-1.59125 0.795625 -0.8075 0.40375 0 0 Z " fill="#AB88D3" transform="translate(101,117)"/>
<path d="M0 0 C0.66 0.33 1.32 0.66 2 1 C3.26229508 5.47540984 3.26229508 5.47540984 2 8 C-0.5625 8.625 -0.5625 8.625 -3 9 C-2.01 6.03 -1.02 3.06 0 0 Z " fill="#A78ACE" transform="translate(333,286)"/>
<path d="M0 0 C0.33 0 0.66 0 1 0 C1.02698189 1.62490954 1.04638757 3.24994633 1.0625 4.875 C1.07410156 5.77992188 1.08570313 6.68484375 1.09765625 7.6171875 C1 10 1 10 0 12 C-0.99 11.67 -1.98 11.34 -3 11 C-2.01 7.37 -1.02 3.74 0 0 Z " fill="#7B6CC4" transform="translate(457,274)"/>
<path d="M0 0 C0.33 0 0.66 0 1 0 C1.19818283 6.70518586 1.30844801 12.65176798 -1 19 C-1.33 19 -1.66 19 -2 19 C-2.24794402 12.4294834 -1.32388229 6.43028541 0 0 Z " fill="#907CD3" transform="translate(69,192)"/>
<path d="M0 0 C1.98 0.495 1.98 0.495 4 1 C4.33 2.32 4.66 3.64 5 5 C4.01 5 3.02 5 2 5 C1.34 6.32 0.68 7.64 0 9 C-1.53445094 5.93109813 -0.54984289 3.29905734 0 0 Z " fill="#9290D8" transform="translate(209,161)"/>
<path d="M0 0 C-0.99 0.495 -0.99 0.495 -2 1 C-2.33 1.99 -2.66 2.98 -3 4 C-4.98 4 -6.96 4 -9 4 C-8.67 3.01 -8.34 2.02 -8 1 C-5.07175348 0.02391783 -3.04386724 -0.08226668 0 0 Z " fill="#9067D0" transform="translate(336,410)"/>
<path d="M0 0 C-0.33 0.99 -0.66 1.98 -1 3 C-4.5625 4.6875 -4.5625 4.6875 -8 6 C-8.66 5.34 -9.32 4.68 -10 4 C-8.68 3.67 -7.36 3.34 -6 3 C-6 2.34 -6 1.68 -6 1 C-3.92446352 0.4465236 -2.15634036 0 0 0 Z " fill="#8F65CE" transform="translate(357,401)"/>
<path d="M0 0 C4.49014624 1.49671541 8.47848764 3.83368341 12 7 C12 7.66 12 8.32 12 9 C7.09198451 7.51272258 3.59508707 4.55364515 0 1 C0 0.67 0 0.34 0 0 Z " fill="#B98DEB" transform="translate(142,384)"/>
<path d="M0 0 C0 3 0 3 -1 5.125 C-4.05892679 7.99274387 -6.87341955 7.72940456 -11 8 C-7.76446401 5.51112616 -4.39550259 3.26366839 -1 1 C-0.67 0.67 -0.34 0.34 0 0 Z " fill="#BAA6D4" transform="translate(255,295)"/>
<path d="M0 0 C0.33 0 0.66 0 1 0 C2.5056904 5.80766296 3.21824777 10.9981863 3 17 C2.67 17 2.34 17 2 17 C-0.01167675 11.21642935 -0.22084624 6.09781001 0 0 Z " fill="#6D72DA" transform="translate(461,196)"/>
<path d="M0 0 C-0.66 1.32 -1.32 2.64 -2 4 C-2.66 3.34 -3.32 2.68 -4 2 C-6.20250992 1.53993654 -6.20250992 1.53993654 -8.625 1.375 C-9.85089844 1.26285156 -9.85089844 1.26285156 -11.1015625 1.1484375 C-11.72804687 1.09945312 -12.35453125 1.05046875 -13 1 C-13 0.67 -13 0.34 -13 0 C-11.58456585 -0.19658808 -10.16755969 -0.38187546 -8.75 -0.5625 C-7.96109375 -0.66691406 -7.1721875 -0.77132812 -6.359375 -0.87890625 C-3.99467126 -1.00027349 -2.2488963 -0.69633257 0 0 Z " fill="#99A6E4" transform="translate(255,161)"/>
<path d="M0 0 C0.99 0.33 1.98 0.66 3 1 C-0.625 5.875 -0.625 5.875 -4 7 C-4 5.35 -4 3.7 -4 2 C-2.68 2.33 -1.36 2.66 0 3 C0 2.01 0 1.02 0 0 Z " fill="#B289DF" transform="translate(404,367)"/>
<path d="M0 0 C0.33 0.99 0.66 1.98 1 3 C-0.125 5.125 -0.125 5.125 -2 7 C-4.6875 7.75 -4.6875 7.75 -7 8 C-7 7.34 -7 6.68 -7 6 C-6.34 6 -5.68 6 -5 6 C-5 5.34 -5 4.68 -5 4 C-4.34 4 -3.68 4 -3 4 C-3 3.34 -3 2.68 -3 2 C-2.01 1.34 -1.02 0.68 0 0 Z " fill="#B69EDC" transform="translate(126,85)"/>
<path d="M0 0 C2.4375 0.375 2.4375 0.375 5 1 C5.33 1.66 5.66 2.32 6 3 C4.02 3.66 2.04 4.32 0 5 C-0.66 4.34 -1.32 3.68 -2 3 C-1.34 2.01 -0.68 1.02 0 0 Z " fill="#9D80C2" transform="translate(286,299)"/>
<path d="M0 0 C0 0.66 0 1.32 0 2 C-3.90028225 4.60018816 -7.47434569 4.15085514 -12 4 C-4.28571429 0 -4.28571429 0 0 0 Z " fill="#7C5DA7" transform="translate(252,301)"/>
<path d="M0 0 C0.66 1.32 1.32 2.64 2 4 C0.35 6.31 -1.3 8.62 -3 11 C-3.33 10.01 -3.66 9.02 -4 8 C-3.34 8 -2.68 8 -2 8 C-1.855625 7.236875 -1.71125 6.47375 -1.5625 5.6875 C-1 3 -1 3 0 0 Z " fill="#9674D3" transform="translate(85,144)"/>
<path d="M0 0 C0.66 0 1.32 0 2 0 C1.65120368 3.25543229 0.97866739 4.01873107 -1.5625 6.25 C-2.366875 6.8275 -3.17125 7.405 -4 8 C-3.40312566 4.65750371 -2.26396123 2.53563658 0 0 Z " fill="#9573CE" transform="translate(108,106)"/>
<path d="M0 0 C0.99 0.33 1.98 0.66 3 1 C3.6875 3.0625 3.6875 3.0625 4 5 C5.65 5.33 7.3 5.66 9 6 C8.67 6.66 8.34 7.32 8 8 C5.525 7.01 5.525 7.01 3 6 C3 5.34 3 4.68 3 4 C2.01 3.67 1.02 3.34 0 3 C0 2.01 0 1.02 0 0 Z " fill="#9C83DE" transform="translate(360,54)"/>
<path d="M0 0 C0.33 0 0.66 0 1 0 C1.36923077 6.4 1.36923077 6.4 -0.5 9.4375 C-0.995 9.953125 -1.49 10.46875 -2 11 C-2.95465783 8.83032311 -3.14401212 7.43671207 -2.3984375 5.17578125 C-1.64129615 3.4315257 -0.82390802 1.71372869 0 0 Z " fill="#8058C0" transform="translate(444,307)"/>
<path d="M0 0 C0.66 0.33 1.32 0.66 2 1 C0.515 3.475 0.515 3.475 -1 6 C-2.65 5.67 -4.3 5.34 -6 5 C-2.25 1.125 -2.25 1.125 0 0 Z " fill="#B698E5" transform="translate(161,58)"/>
<path d="M0 0 C0.66 0.33 1.32 0.66 2 1 C2 1.99 2 2.98 2 4 C-1.13349732 5.04449911 -1.98968256 4.93423645 -5 4 C-5 3.34 -5 2.68 -5 2 C-2.625 0.9375 -2.625 0.9375 0 0 Z " fill="#AA96C6" transform="translate(323,300)"/>
<path d="M0 0 C0.66 0.33 1.32 0.66 2 1 C1.67 2.32 1.34 3.64 1 5 C0.34 5 -0.32 5 -1 5 C-1.33 5.99 -1.66 6.98 -2 8 C-2 5.69 -2 3.38 -2 1 C-1.34 0.67 -0.68 0.34 0 0 Z " fill="#8053CD" transform="translate(436,323)"/>
<path d="M0 0 C0.33 0.66 0.66 1.32 1 2 C3.02463255 2.65213292 3.02463255 2.65213292 5 3 C4.67 3.99 4.34 4.98 4 6 C1.53199953 4.84826645 -0.04783565 3.95216435 -2 2 C-1.34 2 -0.68 2 0 2 C0 1.34 0 0.68 0 0 Z " fill="#9CA9E4" transform="translate(323,160)"/>
<path d="M0 0 C4.24822374 0.47202486 6.19989709 2.96655518 9 6 C5.9168649 4.80100302 2.93720508 3.52299523 0 2 C0 1.34 0 0.68 0 0 Z " fill="#BB98EE" transform="translate(380,67)"/>
<path d="M0 0 C1.98 0.99 1.98 0.99 4 2 C4 3.32 4 4.64 4 6 C3.01 6 2.02 6 1 6 C0.67 4.02 0.34 2.04 0 0 Z " fill="#9E84E1" transform="translate(376,64)"/>
<path d="M0 0 C-0.33 0.66 -0.66 1.32 -1 2 C-3.64 2 -6.28 2 -9 2 C-5.945634 -1.054366 -3.9532319 -1.22686507 0 0 Z " fill="#B19FE5" transform="translate(221,36)"/>
<path d="M0 0 C-1.1875 1.5 -1.1875 1.5 -3 3 C-5.6875 3.1875 -5.6875 3.1875 -8 3 C-8 2.34 -8 1.68 -8 1 C-2.25 -1.125 -2.25 -1.125 0 0 Z " fill="#A27ED5" transform="translate(349,407)"/>
<path d="M0 0 C0.8125 1.625 0.8125 1.625 1 4 C-0.46818136 6.24609835 -2.15852858 8.02378677 -4 10 C-4.33 9.34 -4.66 8.68 -5 8 C-4.360625 7.236875 -3.72125 6.47375 -3.0625 5.6875 C-0.85767219 3.11753287 -0.85767219 3.11753287 0 0 Z " fill="#8359C5" transform="translate(425,341)"/>
<path d="M0 0 C0.66 0.33 1.32 0.66 2 1 C1.67 1.99 1.34 2.98 1 4 C-2.5625 5.1875 -2.5625 5.1875 -6 6 C-4 4 -2 2 0 0 Z " fill="#C2A7E7" transform="translate(147,67)"/>
<path d="M0 0 C0.99 0.33 1.98 0.66 3 1 C2.01 1.99 1.02 2.98 0 4 C-0.33 3.01 -0.66 2.02 -1 1 C-0.67 0.67 -0.34 0.34 0 0 Z M-5 4 C-3.02 4.495 -3.02 4.495 -1 5 C-2.65 5.33 -4.3 5.66 -6 6 C-5.67 5.34 -5.34 4.68 -5 4 Z " fill="#9175CF" transform="translate(149,67)"/>
<path d="" fill="#FFFFFF" transform="translate(0,0)"/>
<path d="" fill="#FFFFFF" transform="translate(0,0)"/>
<path d="" fill="#FFFFFF" transform="translate(0,0)"/>
<path d="" fill="#FFFFFF" transform="translate(0,0)"/>
<path d="" fill="#FFFFFF" transform="translate(0,0)"/>
<path d="" fill="#FFFFFF" transform="translate(0,0)"/>
<path d="" fill="#FFFFFF" transform="translate(0,0)"/>
<path d="" fill="#FFFFFF" transform="translate(0,0)"/>
<path d="" fill="#FFFFFF" transform="translate(0,0)"/>
<path d="" fill="#FFFFFF" transform="translate(0,0)"/>
<path d="" fill="#FFFFFF" transform="translate(0,0)"/>
<path d="" fill="#FFFFFF" transform="translate(0,0)"/>
<path d="" fill="#FFFFFF" transform="translate(0,0)"/>
<path d="" fill="#FFFFFF" transform="translate(0,0)"/>
<path d="" fill="#FFFFFF" transform="translate(0,0)"/>
<path d="" fill="#FFFFFF" transform="translate(0,0)"/>
<path d="" fill="#FFFFFF" transform="translate(0,0)"/>
<path d="" fill="#FFFFFF" transform="translate(0,0)"/>
<path d="" fill="#FFFFFF" transform="translate(0,0)"/>
<path d="" fill="#FFFFFF" transform="translate(0,0)"/>
<path d="" fill="#FF00FF" transform="translate(0,0)"/>
<path d="" fill="#FFFFFF" transform="translate(0,0)"/>
<path d="" fill="#FFFFFF" transform="translate(0,0)"/>
<path d="" fill="#FFFFFF" transform="translate(0,0)"/>
<path d="" fill="#FFFFFF" transform="translate(0,0)"/>
<path d="" fill="#FFFFFF" transform="translate(0,0)"/>
<path d="" fill="#FFFFFF" transform="translate(0,0)"/>
<path d="" fill="#00FFFF" transform="translate(0,0)"/>
<path d="" fill="#00FFFF" transform="translate(0,0)"/>
<path d="" fill="#FFFFFF" transform="translate(0,0)"/>
<path d="" fill="#FFFFFF" transform="translate(0,0)"/>
<path d="" fill="#FFFFFF" transform="translate(0,0)"/>
<path d="" fill="#FFFFFF" transform="translate(0,0)"/>
<path d="" fill="#FFFFFF" transform="translate(0,0)"/>
<path d="" fill="#FF00FF" transform="translate(0,0)"/>
<path d="" fill="#FFFFFF" transform="translate(0,0)"/>
<path d="" fill="#FFFFFF" transform="translate(0,0)"/>
<path d="" fill="#FFFFFF" transform="translate(0,0)"/>
<path d="" fill="#FFFFFF" transform="translate(0,0)"/>
<path d="" fill="#FFFFFF" transform="translate(0,0)"/>
<path d="" fill="#FFFFFF" transform="translate(0,0)"/>
<path d="" fill="#FFFFFF" transform="translate(0,0)"/>
<path d="" fill="#FFFFFF" transform="translate(0,0)"/>
<path d="" fill="#FFFFFF" transform="translate(0,0)"/>
<path d="" fill="#FFFFFF" transform="translate(0,0)"/>
<path d="" fill="#FFFFFF" transform="translate(0,0)"/>
<path d="" fill="#FFFFFF" transform="translate(0,0)"/>
<path d="" fill="#FFFFFF" transform="translate(0,0)"/>
<path d="" fill="#FFFFFF" transform="translate(0,0)"/>
<path d="" fill="#FFFFFF" transform="translate(0,0)"/>
<path d="" fill="#FFFFFF" transform="translate(0,0)"/>
<path d="" fill="#FFFFFF" transform="translate(0,0)"/>
<path d="" fill="#FFFFFF" transform="translate(0,0)"/>
<path d="" fill="#FFFFFF" transform="translate(0,0)"/>
<path d="" fill="#FFFFFF" transform="translate(0,0)"/>
<path d="" fill="#FFFFFF" transform="translate(0,0)"/>
</svg>
