<svg width="27" height="27" viewBox="0 0 27 27" fill="none" xmlns="http://www.w3.org/2000/svg">
<path d="M13.2396 14.0212C15.5427 14.0212 17.4098 12.1541 17.4098 9.85091C17.4098 7.54775 15.5427 5.68066 13.2396 5.68066C10.9364 5.68066 9.06934 7.54775 9.06934 9.85091C9.06934 12.1541 10.9364 14.0212 13.2396 14.0212Z" fill="#612ACE"/>
<path d="M13.187 0C5.91591 0 0 5.91537 0 13.1865C0 20.4581 5.91537 26.374 13.187 26.374C20.4586 26.374 26.374 20.4586 26.374 13.1865C26.374 5.91537 20.4586 0 13.187 0ZM20.4357 22.5835C20.292 19.2952 18.1291 16.1041 15.4796 16.1041H10.9996C8.32874 16.1041 6.15254 19.347 6.0409 22.6631C3.17082 20.4933 1.31192 17.0533 1.31192 13.1859C1.31192 6.6381 6.63971 1.31138 13.187 1.31138C19.7354 1.31138 25.0621 6.63864 25.0621 13.1859C25.0626 17.0074 23.247 20.4095 20.4357 22.5835Z" fill="#612ACE"/>
</svg>
