<?xml version="1.0" encoding="UTF-8"?>
<!DOCTYPE svg PUBLIC "-//W3C//DTD SVG 1.1//EN" "http://www.w3.org/Graphics/SVG/1.1/DTD/svg11.dtd">
<svg xmlns="http://www.w3.org/2000/svg" version="1.1" width="108px" height="108px" style="shape-rendering:geometricPrecision; text-rendering:geometricPrecision; image-rendering:optimizeQuality; fill-rule:evenodd; clip-rule:evenodd" xmlns:xlink="http://www.w3.org/1999/xlink">
<g><path style="opacity:0.871" fill="#000000" d="M 46.5,7.5 C 72.9922,8.82614 87.6588,22.6595 90.5,49C 89.8717,58.2204 86.8717,66.5537 81.5,74C 88.2534,80.0816 94.2534,86.7483 99.5,94C 98.0155,98.9111 95.0155,100.244 90.5,98C 85,92.5 79.5,87 74,81.5C 55.6033,93.9237 37.7699,93.0904 20.5,79C 3.00965,58.4209 3.34299,38.0876 21.5,18C 28.9637,12.2399 37.2971,8.73993 46.5,7.5 Z M 41.5,18.5 C 60.2854,16.1485 72.7854,23.8151 79,41.5C 81.6011,60.14 74.1011,72.64 56.5,79C 37.8967,81.6169 25.3967,74.1169 19,56.5C 16.507,37.808 24.007,25.1413 41.5,18.5 Z"/></g>
</svg>
