<?xml version="1.0" encoding="UTF-8"?>
<!DOCTYPE svg PUBLIC "-//W3C//DTD SVG 1.1//EN" "http://www.w3.org/Graphics/SVG/1.1/DTD/svg11.dtd">
<svg xmlns="http://www.w3.org/2000/svg" version="1.1" width="72px" height="89px" style="shape-rendering:geometricPrecision; text-rendering:geometricPrecision; image-rendering:optimizeQuality; fill-rule:evenodd; clip-rule:evenodd" xmlns:xlink="http://www.w3.org/1999/xlink">
<g><path style="opacity:0.965" fill="#6029cd" d="M 33.5,2.5 C 35.6547,2.37201 37.6547,2.87201 39.5,4C 44.6667,9.16667 49.8333,14.3333 55,19.5C 56.8253,24.9859 54.9919,27.4859 49.5,27C 46.3333,23.8333 43.1667,20.6667 40,17.5C 39.6667,32.1667 39.3333,46.8333 39,61.5C 36.6667,64.1667 34.3333,64.1667 32,61.5C 31.6667,46.8333 31.3333,32.1667 31,17.5C 27.8333,20.6667 24.6667,23.8333 21.5,27C 16.0081,27.4859 14.1747,24.9859 16,19.5C 21.7286,13.603 27.5619,7.93632 33.5,2.5 Z"/></g>
<g><path style="opacity:0.988" fill="#6129ce" d="M 71.5,43.5 C 71.5,56.8333 71.5,70.1667 71.5,83.5C 70.1103,84.8993 69.1103,86.5659 68.5,88.5C 46.5,88.5 24.5,88.5 2.5,88.5C 1.88972,86.5659 0.889724,84.8993 -0.5,83.5C -0.5,70.1667 -0.5,56.8333 -0.5,43.5C 1.84388,42.3284 4.17721,42.3284 6.5,43.5C 7.03695,56.248 7.87029,68.9147 9,81.5C 26.0928,82.6581 43.2595,82.8247 60.5,82C 61.3081,81.6924 61.9747,81.1924 62.5,80.5C 63.1481,68.1985 63.8148,55.8651 64.5,43.5C 66.8228,42.3284 69.1561,42.3284 71.5,43.5 Z"/></g>
</svg>
