<svg width="20" height="15" viewBox="0 0 20 15" fill="none" xmlns="http://www.w3.org/2000/svg">
<path d="M4.2929 0.274584C4.68343 -0.0915281 5.31659 -0.0915281 5.70712 0.274584L9.70711 4.02458C10.0976 4.39071 10.0976 4.98429 9.70711 5.35042C9.31661 5.7165 8.68341 5.7165 8.29291 5.35042L6.00001 3.20082V14.0625C6.00001 14.5803 5.55229 15 5.00001 15C4.44773 15 4 14.5803 4 14.0625V3.20082L1.70711 5.35042C1.31658 5.7165 0.683421 5.7165 0.29289 5.35042C-0.0976301 4.98429 -0.0976301 4.39071 0.29289 4.02458L4.2929 0.274584ZM14 11.7992V0.9375C14 0.419737 14.4477 0 15 0C15.5523 0 16 0.419737 16 0.9375V11.7992L18.2929 9.64959C18.6834 9.2835 19.3166 9.2835 19.7071 9.64959C20.0976 10.0157 20.0976 10.6093 19.7071 10.9754L15.7071 14.7254C15.5196 14.9012 15.2652 15 15 15C14.7348 15 14.4804 14.9012 14.2929 14.7254L10.2929 10.9754C9.90241 10.6093 9.90241 10.0157 10.2929 9.64959C10.6834 9.2835 11.3166 9.2835 11.7071 9.64959L14 11.7992Z" fill="black"/>
</svg>
